<?xml version="1.0" encoding="UTF-8"?>
<svg version="1.1" xmlns="http://www.w3.org/2000/svg" width="529" height="471">
<path d="M0 0 C1.93504395 0.00966797 1.93504395 0.00966797 3.90917969 0.01953125 C14.05205761 0.21316569 22.69454263 1.50136231 32 5.5 C33.081604 5.95802002 33.081604 5.95802002 34.18505859 6.42529297 C52.66947533 14.40185494 68.74142532 25.67379687 84.38378906 38.20849609 C85.89255743 39.41414333 87.41078015 40.60793268 88.9296875 41.80078125 C93.21203028 45.17455576 97.19418544 48.58544788 101 52.5 C102.65704363 53.84527394 104.32256825 55.18023552 106 56.5 C106.39566162 56.11368408 106.79132324 55.72736816 107.19897461 55.3293457 C120.18001293 42.72785903 133.98348672 31.59812997 149 21.5 C149.63679688 21.0558374 150.27359375 20.6116748 150.9296875 20.15405273 C159.73010732 14.11051882 169.22203296 9.72816082 179 5.5 C180.06734375 5.0356958 180.06734375 5.0356958 181.15625 4.56201172 C190.80944164 0.56139584 200.36361387 0.01283753 210.75 -0.125 C211.95785156 -0.14836426 213.16570312 -0.17172852 214.41015625 -0.19580078 C227.19135725 -0.08230651 237.55049573 3.92476088 247 12.5 C247.61359375 13.02207031 248.2271875 13.54414063 248.859375 14.08203125 C263.80997624 27.67649388 268.18595504 49.49044914 269.16845703 68.81298828 C269.9936133 93.58493892 267.26317989 117.41208635 261.41137695 141.46069336 C260.90112962 143.64339631 260.90112962 143.64339631 261 146.5 C261.70793701 146.72550537 262.41587402 146.95101074 263.14526367 147.18334961 C289.3878524 155.59598467 317.31274953 164.8490768 339 182.5 C339.84812256 183.18425049 339.84812256 183.18425049 340.71337891 183.88232422 C342.54770907 185.3686045 344.37020105 186.86795363 346.1875 188.375 C346.7654834 188.85187256 347.3434668 189.32874512 347.93896484 189.82006836 C349.33247619 191.00126542 350.67185329 192.24575652 352 193.5 C352 194.16 352 194.82 352 195.5 C352.66 195.5 353.32 195.5 354 195.5 C355.71081195 197.54691837 357.27274298 199.57889468 358.8125 201.75 C359.26101318 202.380271 359.70952637 203.01054199 360.17163086 203.65991211 C369.78207053 217.57191823 372.04373088 232.61621004 369.421875 249.14453125 C363.09292449 272.47534426 342.85349958 288.48363167 322.91552734 300.20678711 C304.2561155 310.81130741 281.56189507 321.98304727 260 324.5 C260.24234375 325.44875 260.4846875 326.3975 260.734375 327.375 C262.91212007 336.13091613 264.6914544 344.9142325 266.1875 353.8125 C266.35411133 354.78896484 266.52072266 355.76542969 266.69238281 356.77148438 C271.70334562 387.37231271 273.11838684 424.37480478 254.84375 451.10546875 C246.70431324 461.6763898 236.96487736 468.27728564 224 471.5 C219.54452149 472.0243309 215.16971621 472.07454896 210.6875 472 C209.49761475 471.98573975 208.30772949 471.97147949 207.08178711 471.95678711 C198.09659476 471.74134872 190.41824347 470.82940176 182 467.5 C181.2579834 467.2097998 180.5159668 466.91959961 179.75146484 466.62060547 C162.46459016 459.72463434 146.9962156 450.03049129 132.46875 438.4609375 C129.96666311 436.41771596 129.96666311 436.41771596 127 434.5 C127 433.84 127 433.18 127 432.5 C126.42378906 432.2421875 125.84757812 431.984375 125.25390625 431.71875 C122.80606215 430.3951324 120.99362273 428.8699228 118.9375 427 C116.66567993 424.94184439 114.56292743 423.20861829 112 421.5 C112 420.84 112 420.18 112 419.5 C111.401875 419.21125 110.80375 418.9225 110.1875 418.625 C108 417.5 108 417.5 105 415.5 C104.38125 416.16 103.7625 416.82 103.125 417.5 C101 419.5 101 419.5 99 419.5 C99 420.16 99 420.82 99 421.5 C97.42578125 423.0859375 97.42578125 423.0859375 95.3125 424.875 C94.58417969 425.49246094 93.85585937 426.10992187 93.10546875 426.74609375 C92.41066406 427.32488281 91.71585938 427.90367187 91 428.5 C90.05125 429.304375 89.1025 430.10875 88.125 430.9375 C86 432.5 86 432.5 84 432.5 C84 433.16 84 433.82 84 434.5 C81.8126541 436.37177407 79.62285278 438.10230971 77.3125 439.8125 C76.59989014 440.34012939 75.88728027 440.86775879 75.15307617 441.41137695 C62.78756924 450.41615882 50.00490399 458.54734135 35.9375 464.625 C35.11805908 464.97908936 34.29861816 465.33317871 33.4543457 465.69799805 C22.55118047 470.17837527 12.27357752 472.01116857 0.5 471.9375 C-0.63308594 471.95748047 -1.76617187 471.97746094 -2.93359375 471.99804688 C-17.48136112 471.98971482 -27.86338163 466.99870749 -38.44140625 457.25 C-57.18665918 437.96554352 -58.59771986 410.41532126 -58.25 385.0625 C-57.73986921 365.0449678 -55.36054519 343.58163556 -49 324.5 C-49.92292847 324.33564453 -49.92292847 324.33564453 -50.86450195 324.16796875 C-56.83348099 323.04825178 -62.47089112 321.53962376 -68.1875 319.5 C-69.0340918 319.1994873 -69.88068359 318.89897461 -70.75292969 318.58935547 C-102.6558128 307.01947564 -139.11006879 290.5619322 -155 258.5 C-160.78678923 245.38088156 -161.12314729 229.83728895 -156.265625 216.359375 C-154.23856125 211.77971246 -151.84001907 207.62012619 -149 203.5 C-148.18402344 202.31470703 -148.18402344 202.31470703 -147.3515625 201.10546875 C-144.4469527 197.06026827 -144.4469527 197.06026827 -143 195.5 C-142.34 195.5 -141.68 195.5 -141 195.5 C-140.7834375 194.94441406 -140.566875 194.38882813 -140.34375 193.81640625 C-125.07625354 167.49772776 -76.76518765 154.26804677 -50 146.5 C-50.9753493 141.0888866 -51.95981245 135.68031869 -53 130.28125 C-59.59244243 95.77454129 -64.54017093 55.14400443 -45.6875 23.5625 C-34.26301154 6.87673395 -19.85434286 -0.10311266 0 0 Z M-21.5625 32.25390625 C-36.87424912 51.81466575 -35.72974046 79.21387462 -33.17797852 102.73022461 C-31.60103943 115.49005305 -28.97183918 127.99887471 -26 140.5 C-20.40814355 139.98421572 -14.90674206 139.17693502 -9.37890625 138.1953125 C-8.33120811 138.0101709 -8.33120811 138.0101709 -7.26234436 137.82128906 C-4.25110893 137.28701143 -1.24064946 136.74909278 1.76766968 136.1986084 C9.71146516 134.74865094 17.50030519 133.39339086 25.5859375 133.0703125 C38.05957431 132.88261053 38.05957431 132.88261053 48.390625 126.73828125 C51.56196217 122.97910424 54.1821782 118.95299652 56.67578125 114.72070312 C58.45029511 111.74485909 60.45718702 109.06444482 62.5625 106.3125 C63.25085938 105.38695313 63.93921875 104.46140625 64.6484375 103.5078125 C68.54250529 98.52702811 72.71250605 93.78941608 76.88671875 89.04296875 C77.39638184 88.46208496 77.90604492 87.88120117 78.43115234 87.28271484 C79.5255439 86.03913452 80.62525794 84.80022671 81.72900391 83.56494141 C82.27862793 82.94151855 82.82825195 82.3180957 83.39453125 81.67578125 C83.8944458 81.11415283 84.39436035 80.55252441 84.90942383 79.97387695 C86.1982701 78.53762558 86.1982701 78.53762558 86 76.5 C86.99 76.17 87.98 75.84 89 75.5 C87.84635343 74.34635343 86.69202078 73.19338835 85.53515625 72.04296875 C84.51163964 71.0142434 83.49851715 69.9750712 82.49609375 68.92578125 C77.37831818 63.63535783 71.75661487 59.07519195 66 54.5 C65.04480469 53.71625 64.08960938 52.9325 63.10546875 52.125 C43.86119703 36.70981957 0.83759016 7.10980504 -21.5625 32.25390625 Z M133.09375 64.8359375 C131.1625304 66.51582789 129.21643679 68.12027521 127.20703125 69.7109375 C125.04081273 71.46691641 123.55968738 73.20151334 122 75.5 C122.99 75.83 123.98 76.16 125 76.5 C126.02392578 78.3659668 126.02392578 78.3659668 127 80.5 C128.21839157 82.11751694 128.21839157 82.11751694 129.6171875 83.64453125 C130.13531006 84.23073242 130.65343262 84.81693359 131.18725586 85.42089844 C131.74421143 86.04512695 132.30116699 86.66935547 132.875 87.3125 C144.2677813 100.29037766 154.64688127 113.91033754 164.79174805 127.88037109 C166.54363662 130.32851324 166.54363662 130.32851324 169.59082031 130.90136719 C170.74163086 131.03188477 171.89244141 131.16240234 173.078125 131.296875 C175.01739868 131.52443481 175.01739868 131.52443481 176.99584961 131.7565918 C178.03586624 131.87688248 178.03586624 131.87688248 179.09689331 131.99960327 C192.32282887 133.53772073 205.41533137 135.46068185 218.51855469 137.83691406 C224.67484762 138.95090993 230.7716249 139.8989585 237 140.5 C246.45038622 97.75933194 246.45038622 97.75933194 243 54.5 C242.75507813 53.42105469 242.51015625 52.34210937 242.2578125 51.23046875 C239.77850481 41.80690545 235.26913592 33.48761513 227.4375 27.4375 C195.93035118 9.67892521 155.36788009 45.45531674 133.09375 64.8359375 Z M105 92.5 C98.04258739 99.95158397 91.37480961 107.53728327 85 115.5 C84.22914063 116.43714844 83.45828125 117.37429687 82.6640625 118.33984375 C81.92929688 119.23832031 81.19453125 120.13679688 80.4375 121.0625 C79.77621094 121.86816406 79.11492187 122.67382812 78.43359375 123.50390625 C76.80555292 125.36114973 76.80555292 125.36114973 77 127.5 C95.81 127.5 114.62 127.5 134 127.5 C132.34276525 124.1855305 130.8589809 121.89371242 128.5625 119.0625 C127.85996094 118.19625 127.15742188 117.33 126.43359375 116.4375 C123.21744599 112.55540832 119.96300967 108.70648184 116.68188477 104.87915039 C114.63469613 102.48250442 112.75121194 100.12681791 111 97.5 C110.34 97.5 109.68 97.5 109 97.5 C108.566875 96.5409375 108.566875 96.5409375 108.125 95.5625 C107.17176549 93.34793921 107.17176549 93.34793921 105 92.5 Z M71.25634766 151.39306641 C62.90042222 151.17350835 62.90042222 151.17350835 55.37597656 154.30908203 C53.28006447 156.8050287 51.84616551 159.21971091 50.375 162.125 C49.5389624 163.56262695 49.5389624 163.56262695 48.68603516 165.02929688 C47.57606098 166.94900895 46.49355137 168.88490798 45.44140625 170.83691406 C43.88026046 173.7212261 42.18869033 176.49236936 40.44873047 179.27050781 C38.56375282 182.30670192 36.79076716 185.40767274 35 188.5 C34.56010742 189.25120117 34.12021484 190.00240234 33.66699219 190.77636719 C27.44223374 201.41264054 21.46524073 212.176833 15.6875 223.0625 C15.10581055 224.13935059 14.52412109 225.21620117 13.92480469 226.32568359 C13.39661133 227.33324707 12.86841797 228.34081055 12.32421875 229.37890625 C11.85072998 230.2716626 11.37724121 231.16441895 10.8894043 232.08422852 C9.47889611 235.9154057 10.71468594 237.87346018 12.35546875 241.4765625 C12.96036552 242.69559371 13.57159003 243.91149594 14.1875 245.125 C14.53425781 245.81029785 14.88101563 246.4955957 15.23828125 247.20166016 C16.48196253 249.63984655 17.73883036 252.07081274 19 254.5 C19.49193848 255.44810547 19.98387695 256.39621094 20.49072266 257.37304688 C29.28170255 274.21590617 38.76145751 290.50000242 49 306.5 C49.35018188 307.05272583 49.70036377 307.60545166 50.06115723 308.17492676 C51.12810346 309.85415532 52.20845868 311.52484005 53.2890625 313.1953125 C54.2473999 314.68442139 54.2473999 314.68442139 55.22509766 316.20361328 C56.8634063 318.76403917 56.8634063 318.76403917 60 319.5 C62.8711216 319.73738716 65.72134698 319.92056514 68.59765625 320.0546875 C69.47647964 320.09673309 70.35530304 320.13877869 71.26075745 320.18209839 C81.55302444 320.6287671 91.84446695 320.65028395 102.14477539 320.63037109 C105.43054833 320.62501134 108.71618429 320.6303543 112.00195312 320.63671875 C118.33551397 320.64039261 124.66711064 320.59072655 131 320.5 C132.02152161 320.48674683 133.04304321 320.47349365 134.09552002 320.45983887 C137.01409379 320.41116763 139.9301063 320.3325159 142.84765625 320.2421875 C143.71724472 320.22858185 144.58683319 320.2149762 145.48277283 320.20095825 C150.2739342 320.02458749 150.2739342 320.02458749 154.38476562 317.73046875 C155.97606663 315.53304947 157.54188351 313.36142765 158.99609375 311.0703125 C159.54789307 310.20422363 160.09969238 309.33813477 160.66821289 308.44580078 C161.25207764 307.51493652 161.83594238 306.58407227 162.4375 305.625 C163.05294678 304.64901855 163.66839355 303.67303711 164.30249023 302.66748047 C175.04423394 285.54280219 185.15418253 268.08908432 194.57421875 250.20117188 C195.53804614 248.37518108 196.52039874 246.55886758 197.51953125 244.75195312 C197.98746094 243.87990234 198.45539063 243.00785156 198.9375 242.109375 C199.35902344 241.34077148 199.78054688 240.57216797 200.21484375 239.78027344 C201.52223731 235.98330334 200.40010925 233.40641061 198.82348633 229.8347168 C198.33130615 228.88250244 197.83912598 227.93028809 197.33203125 226.94921875 C196.49744385 225.33080078 196.49744385 225.33080078 195.64599609 223.6796875 C195.04094238 222.52726562 194.43588867 221.37484375 193.8125 220.1875 C193.34689667 219.29587158 193.34689667 219.29587158 192.87188721 218.38623047 C183.59704164 200.64356289 173.54562907 183.29510169 162.5703125 166.546875 C160.97064259 164.09549203 159.65420155 161.78854865 158.3671875 159.140625 C156.80285383 156.11453692 155.71144248 154.56511836 153 152.5 C150.22961684 152.0359441 147.81800172 151.81901424 145.03515625 151.765625 C144.21329834 151.7365506 143.39144043 151.7074762 142.54467773 151.67752075 C131.45459138 151.33583318 120.35150988 151.35079328 109.25732422 151.36962891 C105.5061438 151.37499122 101.75508307 151.36964997 98.00390625 151.36328125 C92.06981603 151.35804392 86.13787503 151.4072836 80.20428467 151.48065186 C77.2187899 151.4986789 74.24109059 151.45374391 71.25634766 151.39306641 Z M185 156.5 C186.22265647 159.72754636 187.57166508 162.6427636 189.390625 165.57421875 C189.84985352 166.31897461 190.30908203 167.06373047 190.78222656 167.83105469 C191.2665918 168.60868164 191.75095703 169.38630859 192.25 170.1875 C193.25010589 171.8111327 194.25010684 173.43483004 195.25 175.05859375 C196.76704164 177.51151923 198.28774892 179.96201066 199.8125 182.41015625 C203.40809389 188.26276695 206.42933356 194.30258132 209.38671875 200.49609375 C210.78488878 203.09946603 211.89935051 204.5298393 214 206.5 C218.18899471 198.82747695 221.24341541 190.83572306 224.13183594 182.61083984 C224.8847295 180.47236489 225.65272907 178.33970741 226.421875 176.20703125 C226.90455053 174.84667483 227.38635487 173.48600891 227.8671875 172.125 C228.30144043 170.90039062 228.73569336 169.67578125 229.18310547 168.4140625 C230.32616871 165.5923037 230.32616871 165.5923037 229 163.5 C225.99943986 162.66191061 225.99943986 162.66191061 222.32421875 162.02734375 C221.64382034 161.89936905 220.96342194 161.77139435 220.2624054 161.63954163 C218.81300411 161.3690136 217.36278792 161.102822 215.91186523 160.84057617 C213.7326664 160.44568458 211.55677393 160.03560484 209.38085938 159.62304688 C201.26890685 158.11161765 193.25195866 156.96750227 185 156.5 Z M14.265625 157.5234375 C12.96882813 157.74 11.67203125 157.9565625 10.3359375 158.1796875 C9.66401367 158.2940918 8.99208984 158.40849609 8.29980469 158.52636719 C6.27097131 158.87143318 4.24108996 159.20966658 2.2109375 159.546875 C-7.96118609 161.20612304 -7.96118609 161.20612304 -18 163.5 C-19.32616871 165.5923037 -19.32616871 165.5923037 -18.18310547 168.4140625 C-17.74885254 169.63867188 -17.31459961 170.86328125 -16.8671875 172.125 C-16.63347443 172.78653076 -16.39976135 173.44806152 -16.15896606 174.12963867 C-15.65979988 175.53647179 -15.15682485 176.94195827 -14.65039062 178.34619141 C-13.88928682 180.46031538 -13.14294628 182.57920273 -12.3984375 184.69921875 C-9.729515 192.21716043 -6.8314131 199.48242003 -3 206.5 C-0.07284994 203.73984012 1.33666738 201.03020324 3.0625 197.375 C8.89974375 185.33826657 15.88845587 173.91088146 23.30810547 162.7890625 C25.37091369 159.8930875 25.37091369 159.8930875 26 156.5 C21.9702197 156.37602132 18.23834318 156.85731708 14.265625 157.5234375 Z M-58 174.4375 C-59.16394287 174.84427979 -60.32788574 175.25105957 -61.52709961 175.67016602 C-82.56194307 183.15264888 -103.31563492 192.33490658 -120 207.5 C-120.73734375 208.15613281 -121.4746875 208.81226563 -122.234375 209.48828125 C-130.04220966 216.81179534 -135.00156178 224.72043668 -135.4375 235.5 C-135.31504947 246.43483245 -129.85553982 254.44340876 -122.4609375 262.1328125 C-114.1022022 270.17311978 -105.24256898 276.04875436 -95.04101562 281.42236328 C-93.11563717 282.43894468 -91.20631508 283.48123607 -89.296875 284.52734375 C-81.17406738 288.87513889 -72.78053022 292.2291489 -64.125 295.375 C-63.07900635 295.7565625 -62.0330127 296.138125 -60.95532227 296.53125 C-54.69972023 298.74220891 -48.54676796 300.41280454 -42 301.5 C-41.73485596 300.72325928 -41.46971191 299.94651855 -41.1965332 299.14624023 C-35.41349482 282.29989082 -29.22877527 265.74169451 -22.15356445 249.39233398 C-21.88358139 248.76480728 -21.61359833 248.13728058 -21.33543396 247.49073792 C-20.60603766 245.79880137 -19.86945038 244.10996993 -19.13232422 242.42138672 C-17.09287352 237.27218988 -17.09287352 237.27218988 -17.78173828 231.93334961 C-18.41958252 230.55675171 -18.41958252 230.55675171 -19.0703125 229.15234375 C-19.54887695 228.08854492 -20.02744141 227.02474609 -20.52050781 225.92871094 C-21.04999023 224.77661133 -21.57947266 223.62451172 -22.125 222.4375 C-27.34983201 210.71233448 -31.94298332 198.84171222 -36.25 186.75 C-36.53957581 185.93812225 -36.82915161 185.12624451 -37.12750244 184.2897644 C-38.76321651 179.6972005 -40.38690057 175.10055328 -42 170.5 C-47.76676016 170.5 -52.5914353 172.54660678 -58 174.4375 Z M253 170.5 C252.63350342 171.55050537 252.26700684 172.60101074 251.8894043 173.68334961 C250.16781311 178.60579345 248.43056377 183.52262253 246.6875 188.4375 C246.37408661 189.32226013 246.06067322 190.20702026 245.73776245 191.11859131 C241.37467748 203.39078756 236.74561939 215.39424534 231.11401367 227.14819336 C230.68580322 228.06093018 230.25759277 228.97366699 229.81640625 229.9140625 C229.43943604 230.6870166 229.06246582 231.4599707 228.67407227 232.25634766 C227.32270783 236.75436982 229.33935283 240.60419752 231.15234375 244.7265625 C231.59449219 245.74564697 232.03664063 246.76473145 232.4921875 247.81469727 C232.96914063 248.90709717 233.44609375 249.99949707 233.9375 251.125 C241.03866183 267.63075133 247.4086449 284.42127754 253 301.5 C260.68287604 300.22413564 267.81720806 298.04077083 275.125 295.375 C276.22448975 294.97539062 277.32397949 294.57578125 278.45678711 294.1640625 C286.64554719 291.12713952 294.4658495 287.72193499 302.12304688 283.52685547 C304.11808447 282.43539759 306.12861905 281.37621869 308.140625 280.31640625 C316.51464775 275.83478224 323.93313855 270.9147182 331 264.5 C331.66515625 263.91605469 332.3303125 263.33210938 333.015625 262.73046875 C339.39191672 256.81160666 345.43976304 248.24788568 346.30078125 239.4140625 C346.34596466 226.73258556 341.57425772 218.09632832 332.9375 209 C314.80616139 191.59391494 289.87904393 181.34042761 266.4375 173.4375 C265.55102783 173.13827637 264.66455566 172.83905273 263.7512207 172.53076172 C259.88052371 171.27007861 257.13530489 170.5 253 170.5 Z M-4 265.5 C-9.59094649 279.3429146 -14.74141474 293.18781347 -19 307.5 C-10.95002303 309.92669946 -2.86838169 311.52345539 5.42749023 312.86254883 C7.46002613 313.19114172 9.49076639 313.52951089 11.52148438 313.86914062 C18.72455278 315.08555938 18.72455278 315.08555938 26 315.5 C24.24731398 310.37676394 21.3720642 305.96732746 18.5625 301.375 C14.29225044 294.32671189 10.06920156 287.25550587 5.9375 280.125 C5.25892944 278.95880127 5.25892944 278.95880127 4.56665039 277.76904297 C2.23729097 273.74019068 0.0292497 269.69156495 -2 265.5 C-2.66 265.5 -3.32 265.5 -4 265.5 Z M213 265.5 C212.5781543 266.27899658 212.15630859 267.05799316 211.72167969 267.8605957 C209.73776965 271.51489772 207.74685923 275.16526065 205.75 278.8125 C205.3905127 279.46916656 205.03102539 280.12583313 204.66064453 280.80239868 C199.56477461 290.0872681 194.2735712 299.18050805 188.45605469 308.03833008 C185.91375928 311.48056067 185.91375928 311.48056067 185 315.5 C195.62435586 314.59089164 206.0355463 313.06395468 216.5 311 C217.60400146 310.78641846 218.70800293 310.57283691 219.84545898 310.3527832 C220.87614502 310.14355225 221.90683105 309.93432129 222.96875 309.71875 C223.89107422 309.53248047 224.81339844 309.34621094 225.76367188 309.15429688 C228.1778351 308.64222988 228.1778351 308.64222988 230 306.5 C222.98044667 285.82071167 222.98044667 285.82071167 215 265.5 C214.34 265.5 213.68 265.5 213 265.5 Z M-26 331.5 C-32.8829285 358.65182538 -38.65205412 389.72767405 -32 417.5 C-31.79375 418.38171875 -31.5875 419.2634375 -31.375 420.171875 C-29.04659064 428.9034101 -24.60063466 439.13414627 -16.6015625 443.94140625 C-4.96883105 449.92833989 4.86938148 449.42130728 17.3671875 445.6953125 C22.47695944 444.0140327 27.21546251 441.94726343 32 439.5 C32.9796875 439.02046875 33.959375 438.5409375 34.96875 438.046875 C55.18196203 427.74013817 73.13704053 412.58796599 89 396.5 C88.59910156 396.12230469 88.19820313 395.74460937 87.78515625 395.35546875 C83.29529704 391.00814476 79.34600356 386.36125738 75.43359375 381.4921875 C73.38417213 378.97235289 71.2863538 376.50771867 69.1574707 374.05517578 C62.13490873 365.93505965 55.84184435 357.30836428 49.56469727 348.60546875 C49.04834717 347.91066406 48.53199707 347.21585937 48 346.5 C47.43740479 345.61763672 46.87480957 344.73527344 46.29516602 343.82617188 C43.22709558 340.71665426 40.3749668 340.48092945 36.2109375 340.09375 C35.44278717 340.00328903 34.67463684 339.91282806 33.88320923 339.81962585 C32.2363564 339.62733895 30.58835287 339.44470586 28.93945312 339.27084351 C24.62876078 338.81557177 20.32653948 338.29102345 16.0234375 337.76953125 C14.73817169 337.61609001 14.73817169 337.61609001 13.42694092 337.45954895 C4.8092745 336.40602375 -3.65887229 334.8117739 -12.15478516 333.0234375 C-16.85291471 332.0451536 -21.16652472 331.2142371 -26 331.5 Z M216.64746094 334.3996582 C209.51849424 335.83579599 202.57206565 336.77409692 195.328125 337.3125 C177.28029488 337.87539992 177.28029488 337.87539992 161.70703125 345.50390625 C158.64381831 349.10336961 156.36039733 352.94553767 154.26367188 357.16845703 C152.0163825 361.31482749 148.97368976 364.85789755 146 368.5 C145.34773438 369.33789062 144.69546875 370.17578125 144.0234375 371.0390625 C139.34887671 376.95426502 134.44888197 382.65476761 129.47998047 388.32275391 C126.86950942 391.30670984 124.31103787 394.27265589 122 397.5 C122.44988281 397.88929688 122.89976562 398.27859375 123.36328125 398.6796875 C126.41992226 401.33816886 129.46382833 403.99674355 132.41796875 406.76953125 C153.30197781 426.32656848 183.18244267 449.10337781 213.01953125 448.78125 C220.66488802 448.05980087 227.73074499 445.13687745 233 439.5 C250.01581506 414.85640577 246.86037844 381.64820273 242 353.5 C240.55273194 346.11513607 238.84899325 338.79392174 237 331.5 C230.04389837 331.08874399 223.40505534 332.9641861 216.64746094 334.3996582 Z M76 343.5 C76.9373682 344.92747614 77.87763527 346.35304893 78.8190918 347.77783203 C79.60403267 348.96894089 79.60403267 348.96894089 80.40483093 350.18411255 C82.65574454 353.45201855 85.18334331 356.40930777 87.8125 359.375 C88.86052302 360.57451877 89.90738477 361.77505307 90.953125 362.9765625 C91.46552734 363.56469727 91.97792969 364.15283203 92.50585938 364.75878906 C95.48254946 368.22770307 98.31719867 371.81178082 101.16015625 375.390625 C103.00684544 377.69409609 103.00684544 377.69409609 106 379.5 C116.33793254 368.3419392 125.78846681 356.59614692 135 344.5 C131.89666117 343.46555372 129.77123751 343.37916576 126.51879883 343.38647461 C124.83739555 343.38658791 124.83739555 343.38658791 123.12202454 343.38670349 C121.91257675 343.39186478 120.70312897 343.39702606 119.45703125 343.40234375 C118.21829758 343.4037587 116.9795639 343.40517365 115.70329285 343.40663147 C112.41368463 343.41128398 109.1241254 343.4202661 105.83453369 343.43133545 C102.47628377 343.44157371 99.11802667 343.44613426 95.75976562 343.45117188 C89.17315788 343.46220855 82.58658295 343.47895233 76 343.5 Z " fill="#63DAFA" transform="translate(159,-0.5)"/>
<path d="M0 0 C10.68346121 8.15544608 18.03839206 18.22328187 20.625 31.6875 C21.45799899 47.09798129 19.46742637 59.56980178 9.7265625 72.13671875 C1.45449042 81.19294636 -10.52998225 87.03955103 -22.734375 87.93359375 C-37.61486045 88.43467132 -50.49216909 84.19857698 -61.5625 74.125 C-70.47098036 64.71056132 -74.78682769 53.0834121 -74.6875 40.3125 C-74.68331055 39.57008057 -74.67912109 38.82766113 -74.67480469 38.06274414 C-74.55463567 32.20194752 -73.67369646 27.11442252 -71.375 21.6875 C-71.11976563 21.01847656 -70.86453125 20.34945312 -70.6015625 19.66015625 C-65.93395271 8.84757395 -56.03775214 0.13522693 -45.44921875 -4.62890625 C-30.44930335 -9.99002172 -13.39011114 -8.94016443 0 0 Z " fill="#62DAFB" transform="translate(291.375,195.3125)"/>
<path d="M0 0 C3.33609571 0.01847229 6.67191457 0.0205071 10.00805664 0.02026367 C20.79425182 0.03854383 31.5001134 0.16294538 42.24438477 1.20581055 C42.24438477 1.53581055 42.24438477 1.86581055 42.24438477 2.20581055 C41.43466721 2.21611801 40.62494965 2.22642548 39.79069519 2.23704529 C32.07058238 2.33599467 24.35053061 2.43862529 16.63051891 2.5451498 C12.66385814 2.59976036 8.69718975 2.65306391 4.73046875 2.703125 C-3.4915523 2.80777889 -11.71229808 2.93329747 -19.93317127 3.10732174 C-23.94398609 3.18764336 -27.94819624 3.20096805 -31.95947266 3.16308594 C-39.97714503 2.95851688 -39.97714503 2.95851688 -47.21728516 5.87988281 C-49.08152668 8.09861594 -50.24448769 10.13640351 -51.44311523 12.76831055 C-51.88204102 13.57461914 -52.3209668 14.38092773 -52.77319336 15.21166992 C-53.83610631 17.18565112 -54.821521 19.1685771 -55.75561523 21.20581055 C-56.08561523 19.88581055 -56.41561523 18.56581055 -56.75561523 17.20581055 C-56.09561523 17.20581055 -55.43561523 17.20581055 -54.75561523 17.20581055 C-54.09561523 14.89581055 -53.43561523 12.58581055 -52.75561523 10.20581055 C-52.09561523 10.20581055 -51.43561523 10.20581055 -50.75561523 10.20581055 C-50.67311523 9.25706055 -50.59061523 8.30831055 -50.50561523 7.33081055 C-49.75561523 4.20581055 -49.75561523 4.20581055 -47.99034119 3.04963684 C-45.66702611 2.17235954 -43.71939651 1.80887711 -41.25 1.57958984 C-39.91460426 1.45509209 -39.91460426 1.45509209 -38.55223083 1.32807922 C-37.10796471 1.21148201 -37.10796471 1.21148201 -35.63452148 1.0925293 C-34.11478477 0.96608284 -34.11478477 0.96608284 -32.56434631 0.83708191 C-21.71178316 0.01136763 -10.87870384 -0.06218248 0 0 Z " fill="#73D2ED" transform="translate(261.755615234375,148.794189453125)"/>
<path d="M0 0 C1.05248324 3.15744972 0.95893447 4.33372182 0.44140625 7.53125 C-2.29979054 26.08961365 -2.31635659 44.28629087 -2 63 C-6.79078913 58.20921087 -5.13027678 47.32032573 -5.13671875 40.94921875 C-5.13285156 39.64597656 -5.12898438 38.34273438 -5.125 37 C-5.1285678 35.65234281 -5.13247159 34.30468647 -5.13671875 32.95703125 C-5.13478516 31.06017578 -5.13478516 31.06017578 -5.1328125 29.125 C-5.13168457 27.97257812 -5.13055664 26.82015625 -5.12939453 25.6328125 C-5 23 -5 23 -4 22 C-3.83948952 20.00253626 -3.72229703 18.00153898 -3.625 16 C-3.2319842 10.15630606 -2.12081908 5.44036198 0 0 Z " fill="#7CD8F0" transform="translate(128,350)"/>
<path d="M0 0 C0.66 0 1.32 0 2 0 C4.47893295 9.70475879 6.52651425 19.43319184 8.1875 29.3125 C8.35411133 30.28896484 8.52072266 31.26542969 8.69238281 32.27148438 C10.66043507 44.289939 11.1419945 56.08122687 11.0625 68.25 C11.05746786 69.59244622 11.05290802 70.9348943 11.04882812 72.27734375 C11.03717009 75.5182781 11.02080774 78.75911369 11 82 C10.67 82 10.34 82 10 82 C9.95512451 80.99437012 9.91024902 79.98874023 9.86401367 78.95263672 C11.14608224 43.447872 11.14608224 43.447872 2 12 C1.95919217 10.00041636 1.95745644 7.99954746 2 6 C1.01 6 0.02 6 -1 6 C-0.67 4.02 -0.34 2.04 0 0 Z " fill="#84D8EE" transform="translate(417,324)"/>
<path d="M0 0 C0.66 0 1.32 0 2 0 C2 0.66 2 1.32 2 2 C2.66 2 3.32 2 4 2 C4.33 3.65 4.66 5.3 5 7 C5.66 7 6.32 7 7 7 C9.98358758 14.3346528 10.84406481 21.08552218 10 29 C9.34 29.99 8.68 30.98 8 32 C7.855625 33.155 7.71125 34.31 7.5625 35.5 C6.98090607 39.11880666 6.66692092 39.7775659 4 42 C3.67 42.99 3.34 43.98 3 45 C1.22265625 46.421875 1.22265625 46.421875 -0.9375 47.75 C-1.64777344 48.19859375 -2.35804688 48.6471875 -3.08984375 49.109375 C-4.03537109 49.55023438 -4.03537109 49.55023438 -5 50 C-5.66 49.67 -6.32 49.34 -7 49 C-6.40832031 48.40574219 -5.81664062 47.81148438 -5.20703125 47.19921875 C2.25710585 39.36978946 7.18301454 32.31913223 7.5 21.25 C7.27786872 16.02374451 6.50457529 12.56190499 4 8 C3.26669655 6.52287979 2.53759972 5.04366456 1.8125 3.5625 C1.214375 2.386875 0.61625 1.21125 0 0 Z " fill="#85DCF2" transform="translate(497,214)"/>
<path d="M0 0 C-0.33 1.65 -0.66 3.3 -1 5 C-1.86625 5.12375 -2.7325 5.2475 -3.625 5.375 C-6.95609004 5.99186853 -9.8877245 6.65606285 -13 8 C-13.6837045 9.32467746 -14.34964186 10.65863633 -15 12 C-16.96466413 13.06775224 -18.96855359 14.06553465 -21 15 C-23.68137677 16.68543682 -24.88561924 17.80459954 -26.5 20.5625 C-28 23 -28 23 -30.125 24 C-30.74375 24.33 -31.3625 24.66 -32 25 C-32.81171228 27.55519921 -32.81171228 27.55519921 -33 30 C-33.33 29.34 -33.66 28.68 -34 28 C-35.65 28.66 -37.3 29.32 -39 30 C-38.34 28.68 -37.68 27.36 -37 26 C-36.34 26 -35.68 26 -35 26 C-34.7834375 25.44441406 -34.566875 24.88882813 -34.34375 24.31640625 C-32.56619296 21.25218729 -30.1790722 19.1887633 -27.5 16.9375 C-26.9433667 16.46723389 -26.3867334 15.99696777 -25.81323242 15.51245117 C-6.84614424 0 -6.84614424 0 0 0 Z " fill="#82DBF0" transform="translate(53,169)"/>
<path d="M0 0 C2 1.25 2 1.25 4 3 C4 4.32 4 5.64 4 7 C3.34 7 2.68 7 2 7 C2 5.68 2 4.36 2 3 C1.14059814 3.16604736 0.28119629 3.33209473 -0.60424805 3.50317383 C-29.56679192 9.07683473 -29.56679192 9.07683473 -42.25 10.9375 C-43.09264404 11.06552002 -43.93528809 11.19354004 -44.8034668 11.32543945 C-48.50822969 11.84363412 -51.41657177 12.06299086 -55 11 C-45.68420952 7.37719259 -35.89954792 6.64922862 -26 7 C-26 6.34 -26 5.68 -26 5 C-24.77023437 4.92652344 -24.77023437 4.92652344 -23.515625 4.8515625 C-22.43796875 4.77679688 -21.3603125 4.70203125 -20.25 4.625 C-18.64898437 4.52058594 -18.64898437 4.52058594 -17.015625 4.4140625 C-14.07300882 4.17460092 -14.07300882 4.17460092 -11.9375 2.96875 C-9.43119963 1.71559982 -7.53354035 1.80174894 -4.75 1.875 C-3.85796875 1.89304687 -2.9659375 1.91109375 -2.046875 1.9296875 C-1.03367187 1.96449219 -1.03367187 1.96449219 0 2 C0 1.34 0 0.68 0 0 Z " fill="#89DBF1" transform="translate(394,328)"/>
<path d="M0 0 C1.485 0.99 1.485 0.99 3 2 C3.625 5.3125 3.625 5.3125 4 9 C4.31966139 10.66934283 4.64731066 12.3373217 5 14 C5.99 14 6.98 14 8 14 C8.33 16.64 8.66 19.28 9 22 C9.66 22 10.32 22 11 22 C14 26.38461538 14 26.38461538 14 29 C14.66 29 15.32 29 16 29 C16 29.66 16 30.32 16 31 C17.32 31 18.64 31 20 31 C23.22265625 36.2734375 23.22265625 36.2734375 24 38 C23.67 38.66 23.34 39.32 23 40 C10.95512101 30.85674697 3.46596819 17.53667834 0 3 C0 2.01 0 1.02 0 0 Z " fill="#7FDAF0" transform="translate(0,242)"/>
<path d="M0 0 C0.66 0 1.32 0 2 0 C1.31958956 3.87865306 0.23298753 7.46061312 -1.06640625 11.17578125 C-1.46923828 12.33271484 -1.87207031 13.48964844 -2.28710938 14.68164062 C-2.70798828 15.87982422 -3.12886719 17.07800781 -3.5625 18.3125 C-3.98724609 19.53001953 -4.41199219 20.74753906 -4.84960938 22.00195312 C-5.89680396 25.00234211 -6.94703403 28.00163259 -8 31 C-5.01293442 32.2565181 -2.20212563 33.28092062 0.98828125 33.8515625 C1.69404297 33.98046875 2.39980469 34.109375 3.12695312 34.2421875 C3.84818359 34.36851562 4.56941406 34.49484375 5.3125 34.625 C6.05306641 34.7590625 6.79363281 34.893125 7.55664062 35.03125 C9.37025044 35.35886984 11.18501524 35.68008494 13 36 C12.67 36.66 12.34 37.32 12 38 C10.54119891 37.85892253 9.08296449 37.71197585 7.625 37.5625 C6.81289062 37.48128906 6.00078125 37.40007812 5.1640625 37.31640625 C3 37 3 37 1 36 C-1.26765601 35.76764056 -3.53361414 35.61898297 -5.80859375 35.4765625 C-8.45028637 34.90207676 -9.40652896 34.16220186 -11 32 C-11 31.01 -11 30.02 -11 29 C-10.34 29 -9.68 29 -9 29 C-8.82597656 27.98679687 -8.82597656 27.98679687 -8.6484375 26.953125 C-7.8819629 23.46243344 -6.77994623 20.12609513 -5.625 16.75 C-5.40239502 16.0912085 -5.17979004 15.43241699 -4.95043945 14.75366211 C-4.30215499 12.83514454 -3.65113174 10.9175531 -3 9 C-2.3944086 7.18797553 -1.78993691 5.37557567 -1.1875 3.5625 C-0.5996875 1.7990625 -0.5996875 1.7990625 0 0 Z " fill="#82D8EE" transform="translate(149,275)"/>
<path d="M0 0 C2.97 0 5.94 0 9 0 C9 0.99 9 1.98 9 3 C15.88824069 5.40990104 15.88824069 5.40990104 23 7 C23 7.66 23 8.32 23 9 C24.27875 9.185625 25.5575 9.37125 26.875 9.5625 C27.59429687 9.66691406 28.31359375 9.77132813 29.0546875 9.87890625 C31.08140667 10.1684297 31.08140667 10.1684297 33 9 C33.495 10.485 33.495 10.485 34 12 C36.56042066 13.03038956 36.56042066 13.03038956 39.5625 13.6875 C41.08037109 14.06455078 41.08037109 14.06455078 42.62890625 14.44921875 C43.41136719 14.63097656 44.19382813 14.81273437 45 15 C45 15.66 45 16.32 45 17 C38.61902853 15.69059144 32.57272964 13.99161033 26.4375 11.8125 C25.57995117 11.51077881 24.72240234 11.20905762 23.83886719 10.89819336 C15.71489646 7.98958342 7.83755803 4.60133602 0 1 C0 0.67 0 0.34 0 0 Z " fill="#85DBF2" transform="translate(61,306)"/>
<path d="M0 0 C2.36646548 3.71361179 2.25817185 6.97485517 2.265625 11.30859375 C2.26826355 12.02396301 2.2709021 12.73933228 2.27362061 13.47637939 C2.27744566 15.79693054 2.2648067 18.11699818 2.25 20.4375 C2.24822754 21.22234772 2.24645508 22.00719543 2.24462891 22.81582642 C2.21139629 35.30026419 1.61180517 47.60924774 0 60 C-0.66 60 -1.32 60 -2 60 C-2 61.98 -2 63.96 -2 66 C-2.66 66 -3.32 66 -4 66 C-3.91435791 65.42145264 -3.82871582 64.84290527 -3.74047852 64.24682617 C-3.34470142 61.56083319 -2.95358743 58.87417966 -2.5625 56.1875 C-2.42779297 55.27806641 -2.29308594 54.36863281 -2.15429688 53.43164062 C-0.35142022 40.98739446 0.13216394 28.86383831 0.0625 16.3125 C0.05747247 14.72461079 0.05291179 13.13672004 0.04882812 11.54882812 C0.03792755 7.69917975 0.02073283 3.84960747 0 0 Z " fill="#88DAF1" transform="translate(403,59)"/>
<path d="M0 0 C11.13444777 9.82451274 16.43564277 25.55803546 18 40 C18.12419755 42.69380212 18.1018149 45.30190512 18 48 C17.67 48 17.34 48 17 48 C16.80664062 46.73542969 16.61328125 45.47085938 16.4140625 44.16796875 C16.15142921 42.50775115 15.88838705 40.84759819 15.625 39.1875 C15.49867188 38.35412109 15.37234375 37.52074219 15.2421875 36.66210938 C15.11328125 35.85966797 14.984375 35.05722656 14.8515625 34.23046875 C14.67874756 33.12288208 14.67874756 33.12288208 14.50244141 31.99291992 C14.04310634 29.70232389 14.04310634 29.70232389 12 27 C11.47714536 25.40953641 11.00175157 23.80305237 10.5625 22.1875 C9.40902635 18.20277285 8.12028918 14.59527295 6 11 C5.34 10.67 4.68 10.34 4 10 C2.9296875 8.22265625 2.9296875 8.22265625 1.875 6.0625 C1.52179688 5.35222656 1.16859375 4.64195313 0.8046875 3.91015625 C0 2 0 2 0 0 Z " fill="#84D7ED" transform="translate(409,16)"/>
<path d="M0 0 C-3.70188414 2.22878295 -7.6123941 2.78283042 -11.8125 3.4375 C-12.58424561 3.56237793 -13.35599121 3.68725586 -14.15112305 3.81591797 C-21.84404929 5.03214888 -29.56638996 6.03159052 -37.29418945 6.99780273 C-38.22448975 7.11454346 -39.15479004 7.23128418 -40.11328125 7.3515625 C-41.34751831 7.50359131 -41.34751831 7.50359131 -42.60668945 7.65869141 C-45.05518937 7.96428665 -45.05518937 7.96428665 -47.61791992 8.66552734 C-50 9 -50 9 -53 7 C-47.77191199 6.16008646 -42.54322226 5.32405704 -37.31396484 4.49145508 C-35.53905917 4.2083146 -33.76431561 3.92415579 -31.98974609 3.63891602 C-8.86633572 -0.07618452 -8.86633572 -0.07618452 0 0 Z " fill="#84D8ED" transform="translate(200,130)"/>
<path d="M0 0 C2.0625 0.4375 2.0625 0.4375 4 1 C3.030625 1.46148437 2.06125 1.92296875 1.0625 2.3984375 C-7.87982469 6.72558656 -16.32091175 11.52046861 -24.671875 16.8984375 C-27.09192571 18.42659159 -29.4075523 19.80852151 -32 21 C-31.67 19.35 -31.34 17.7 -31 16 C-28.92446352 15.4465236 -27.15634036 15 -25 15 C-25 14.34 -25 13.68 -25 13 C-24.236875 12.731875 -23.47375 12.46375 -22.6875 12.1875 C-20.03337046 11.01474509 -18.96145892 10.04318638 -17 8 C-13.53995058 5.73161096 -10.15668671 4.21594382 -6.25 2.875 C-2.85369499 1.89797747 -2.85369499 1.89797747 0 0 Z " fill="#7FDAED" transform="translate(77,181)"/>
<path d="M0 0 C3.28375747 2.91889553 4.79049372 5.34889562 6.1875 9.5 C6.51105469 10.4384375 6.83460938 11.376875 7.16796875 12.34375 C7.57982422 13.65859375 7.57982422 13.65859375 8 15 C8.19722656 15.60585937 8.39445312 16.21171875 8.59765625 16.8359375 C10.37021403 26.36988905 9.69428277 37.05016018 6 46 C5.06380187 42.84493858 4.8942877 40.03413498 4.9375 36.75 C4.94652344 35.85796875 4.95554687 34.9659375 4.96484375 34.046875 C4.97644531 33.37140625 4.98804688 32.6959375 5 32 C5.99 32 6.98 32 8 32 C6.46574431 20.97758409 3.56263678 10.52886407 0 0 Z " fill="#82D9F0" transform="translate(303,208)"/>
<path d="M0 0 C1.07600031 3.2352712 0.93045298 5.01069271 -0.25 8.1875 C-0.52972656 8.96351563 -0.80945313 9.73953125 -1.09765625 10.5390625 C-1.39542969 11.35117187 -1.69320312 12.16328125 -2 13 C-2.56784459 14.68570906 -3.13059875 16.37314406 -3.6875 18.0625 C-4.125 19.375 -4.5625 20.6875 -5 22 C-4.34 22 -3.68 22 -3 22 C-3.66 23.32 -4.32 24.64 -5 26 C-5.66 25.67 -6.32 25.34 -7 25 C-7.66 28.3 -8.32 31.6 -9 35 C-10.65 34.67 -12.3 34.34 -14 34 C-12.515 33.505 -12.515 33.505 -11 33 C-10.20959599 31.11495532 -10.20959599 31.11495532 -9.75 28.6875 C-8.30208176 22.80241295 -6.39063631 17.14660134 -4.375 11.4375 C-4.06143555 10.54442139 -3.74787109 9.65134277 -3.42480469 8.73120117 C-1.14789977 2.29579953 -1.14789977 2.29579953 0 0 Z " fill="#7CD8F2" transform="translate(128,268)"/>
<path d="M0 0 C3.72437735 3.63650638 7.18648975 7.41455035 10.5625 11.375 C11.07264648 11.97135254 11.58279297 12.56770508 12.10839844 13.18212891 C17.89865119 19.99283855 23.45940403 26.98584128 29 34 C28.67 34.66 28.34 35.32 28 36 C24.125 33.375 24.125 33.375 23 30 C22.34 29.67 21.68 29.34 21 29 C20.67 28.01 20.34 27.02 20 26 C19.01 25.67 18.02 25.34 17 25 C16.7525 24.319375 16.505 23.63875 16.25 22.9375 C14.41082293 18.61543389 11.3954405 15.2272701 8 12 C7.34 12 6.68 12 6 12 C6 11.01 6 10.02 6 9 C5.34 9 4.68 9 4 9 C0.88002198 5.69649386 0 4.67590167 0 0 Z " fill="#81D8EE" transform="translate(283,76)"/>
<path d="M0 0 C5.30603197 0.48236654 9.90844389 1.47785752 14.921875 3.28125 C16.93116503 3.97619242 18.93105266 4.5153817 21 5 C21 5.66 21 6.32 21 7 C21.78375 6.938125 22.5675 6.87625 23.375 6.8125 C24.674375 6.9053125 24.674375 6.9053125 26 7 C26.99 8.485 26.99 8.485 28 10 C18.90425874 7.62971149 9.95607231 4.84301919 1 2 C0.80664062 2.75925781 0.61328125 3.51851562 0.4140625 4.30078125 C0.02347656 5.79158203 0.02347656 5.79158203 -0.375 7.3125 C-0.63023437 8.29863281 -0.88546875 9.28476563 -1.1484375 10.30078125 C-2 13 -2 13 -4 16 C-5.35811733 9.579809 -5.35811733 9.579809 -3.6875 6.875 C-3.130625 6.25625 -2.57375 5.6375 -2 5 C-1.28837557 3.35202764 -0.60968047 1.68834592 0 0 Z " fill="#81D9EE" transform="translate(411,168)"/>
<path d="M0 0 C0.99 0 1.98 0 3 0 C2.505 1.216875 2.01 2.43375 1.5 3.6875 C-1.58272949 13.00908681 -0.64643176 22.03585526 3 31 C2.01 31.33 1.02 31.66 0 32 C-0.33 30.02 -0.66 28.04 -1 26 C-1.66 26.33 -2.32 26.66 -3 27 C-3.33 21.39 -3.66 15.78 -4 10 C-3.34 10 -2.68 10 -2 10 C-1.855625 9.0925 -1.71125 8.185 -1.5625 7.25 C-1.13590527 4.78523044 -0.64925779 2.41152893 0 0 Z " fill="#76D7EF" transform="translate(25,220)"/>
<path d="M0 0 C13.40679425 -0.8696299 24.70749267 2.14962902 35 11 C37.625 13.9375 37.625 13.9375 39 16 C36.23404899 14.78298156 33.95984082 13.24859154 31.5625 11.4375 C28.68893422 9.3269367 26.53486648 8.58914441 23 8 C22.54109375 7.51917969 22.0821875 7.03835937 21.609375 6.54296875 C19.70990776 4.72187759 18.5615265 4.42249491 16 3.9375 C14.82630859 3.70740234 14.82630859 3.70740234 13.62890625 3.47265625 C12.76136719 3.31667969 11.89382813 3.16070312 11 3 C9.99839844 2.81308594 8.99679687 2.62617188 7.96484375 2.43359375 C5.31180761 1.94406579 2.65710521 1.46685587 0 1 C0 0.67 0 0.34 0 0 Z " fill="#85D8EF" transform="translate(261,188)"/>
<path d="M0 0 C0.66 0.33 1.32 0.66 2 1 C-2.455 8.425 -2.455 8.425 -7 16 C-5.74703125 15.77183594 -4.4940625 15.54367187 -3.203125 15.30859375 C-1.55215911 15.01779862 0.09888684 14.72745776 1.75 14.4375 C2.575 14.28603516 3.4 14.13457031 4.25 13.97851562 C5.04921875 13.83994141 5.8484375 13.70136719 6.671875 13.55859375 C7.4050293 13.42767334 8.13818359 13.29675293 8.89355469 13.16186523 C11.16233287 12.98752588 12.83778579 13.33125193 15 14 C7.21930149 15.85939879 0.01701946 17.41467342 -8 17 C-8 15.35 -8 13.7 -8 12 C-7.34 12 -6.68 12 -6 12 C-6 10.35 -6 8.7 -6 7 C-5.34 7 -4.68 7 -4 7 C-4.33 6.01 -4.66 5.02 -5 4 C-3 1 -3 1 0 0 Z " fill="#7CD8F2" transform="translate(351,299)"/>
<path d="M0 0 C0.66 0.99 1.32 1.98 2 3 C1.06027344 3.76183594 1.06027344 3.76183594 0.1015625 4.5390625 C-4.60734719 8.50524195 -7.27884946 10.97597311 -9 17 C-11.375 18.0625 -11.375 18.0625 -14 19 C-16.29577243 21.51406311 -16.29577243 21.51406311 -18 24 C-19.65 23.67 -21.3 23.34 -23 23 C-23.33 21.35 -23.66 19.7 -24 18 C-21.525 19.98 -21.525 19.98 -19 22 C-13.37556291 15.87029433 -7.9768312 9.62236223 -2.75 3.15234375 C-1 1 -1 1 0 0 Z " fill="#8ADBF2" transform="translate(284,356)"/>
<path d="M0 0 C9.99776242 0.48919044 19.53374499 2.07792403 29.3125 4.0625 C30.74660715 4.34769822 32.18085153 4.63220725 33.61523438 4.91601562 C37.07843503 5.60277082 40.53970681 6.2987233 44 7 C44 7.33 44 7.66 44 8 C40.37 8 36.74 8 33 8 C33 7.34 33 6.68 33 6 C32.24976563 5.93941406 31.49953125 5.87882813 30.7265625 5.81640625 C27.48378855 5.55093987 24.24195583 5.2752604 21 5 C20.071875 4.9278125 19.14375 4.855625 18.1875 4.78125 C13.48300803 4.37964703 9.45634139 3.65817354 5 2 C3.33911955 1.63893903 1.67381019 1.29537827 0 1 C0 0.67 0 0.34 0 0 Z " fill="#81D7EC" transform="translate(352,133)"/>
<path d="M0 0 C0 0.66 0 1.32 0 2 C0.78375 2.2475 1.5675 2.495 2.375 2.75 C5.3916501 4.18650005 5.71565565 5.04720831 7 8 C6.25234375 7.57847656 5.5046875 7.15695313 4.734375 6.72265625 C3.74953125 6.17480469 2.7646875 5.62695312 1.75 5.0625 C0.77546875 4.51722656 -0.1990625 3.97195312 -1.203125 3.41015625 C-5.00547834 1.49304793 -8.08997601 0.87207126 -12.328125 0.90234375 C-13.52695312 0.90717773 -13.52695312 0.90717773 -14.75 0.91210938 C-15.575 0.92048828 -16.4 0.92886719 -17.25 0.9375 C-18.09046875 0.94201172 -18.9309375 0.94652344 -19.796875 0.95117188 C-21.86461401 0.96292039 -23.93231624 0.98085478 -26 1 C-25 -1 -25 -1 -23.36328125 -1.61328125 C-15.64980081 -2.87548714 -7.33871522 -2.79570104 0 0 Z " fill="#7FD9F1" transform="translate(384,23)"/>
<path d="M0 0 C0.66 0 1.32 0 2 0 C2.33 0.99 2.66 1.98 3 3 C3.66 3.33 4.32 3.66 5 4 C5.70626239 5.98636298 6.36893571 7.98848259 7 10 C7.63270867 11.34977849 8.30062468 12.68352881 9 14 C12 19.76923077 12 19.76923077 12 22 C12.66 22 13.32 22 14 22 C14 24.97 14 27.94 14 31 C13.34 31 12.68 31 12 31 C12 31.66 12 32.32 12 33 C11.34 33 10.68 33 10 33 C10.350625 32.278125 10.70125 31.55625 11.0625 30.8125 C12.38467195 26.84598414 11.58958426 24.29308731 9.87670898 20.53637695 C9.19330444 19.27506958 9.19330444 19.27506958 8.49609375 17.98828125 C7.75649414 16.60479492 7.75649414 16.60479492 7.00195312 15.19335938 C6.48568359 14.24267578 5.96941406 13.29199219 5.4375 12.3125 C4.41171264 10.41472984 3.38939077 8.51508105 2.37109375 6.61328125 C1.91661865 5.77579346 1.46214355 4.93830566 0.99389648 4.07543945 C0 2 0 2 0 0 Z " fill="#88DCEF" transform="translate(347,209)"/>
<path d="M0 0 C1.23086034 3.69258103 0.66728638 4.58206293 -1 8 C-1.515625 8.61875 -2.03125 9.2375 -2.5625 9.875 C-4.28316519 12.06077288 -4.28316519 12.06077288 -4.375 15.5 C-5 19 -5 19 -7.3125 21.1875 C-8.6428125 22.0846875 -8.6428125 22.0846875 -10 23 C-11.35147138 24.31494512 -12.69112542 25.64264858 -14 27 C-12.35526763 20.81663908 -9.07446913 15.60344134 -5.875 10.125 C-5.31167969 9.15046875 -4.74835938 8.1759375 -4.16796875 7.171875 C-2.78349637 4.77838038 -1.39406459 2.3879162 0 0 Z " fill="#7DDAEF" transform="translate(171,179)"/>
<path d="M0 0 C10.62978569 4.46450999 19.24067428 12.66506311 28 20 C26.68 20.33 25.36 20.66 24 21 C23.34 20.01 22.68 19.02 22 18 C21.01 17.67 20.02 17.34 19 17 C19 16.34 19 15.68 19 15 C18.01 14.67 17.02 14.34 16 14 C15.34 13.29875 14.68 12.5975 14 11.875 C10.63967469 8.30660501 6.41081204 6.04131602 2.23046875 3.55078125 C1.49441406 3.03902344 0.75835937 2.52726562 0 2 C0 1.34 0 0.68 0 0 Z " fill="#7ED8EC" transform="translate(218,20)"/>
<path d="M0 0 C0.88945312 0.00644531 1.77890625 0.01289063 2.6953125 0.01953125 C3.61570313 0.03628906 4.53609375 0.05304688 5.484375 0.0703125 C6.42023438 0.07933594 7.35609375 0.08835938 8.3203125 0.09765625 C10.62526157 0.12117614 12.9296866 0.15404397 15.234375 0.1953125 C15.234375 0.5253125 15.234375 0.8553125 15.234375 1.1953125 C13.99042969 1.07027344 12.74648437 0.94523438 11.46484375 0.81640625 C2.26445768 0.13759412 2.26445768 0.13759412 -5.74511719 3.91113281 C-9.50666697 8.55101402 -12.28269963 13.78012159 -14.765625 19.1953125 C-15.095625 17.8753125 -15.425625 16.5553125 -15.765625 15.1953125 C-15.105625 15.1953125 -14.445625 15.1953125 -13.765625 15.1953125 C-13.105625 12.8853125 -12.445625 10.5753125 -11.765625 8.1953125 C-11.105625 8.1953125 -10.445625 8.1953125 -9.765625 8.1953125 C-9.683125 7.2465625 -9.600625 6.2978125 -9.515625 5.3203125 C-8.765625 2.1953125 -8.765625 2.1953125 -7.01660156 1.01220703 C-4.51627491 0.10482167 -2.65409812 -0.0340269 0 0 Z " fill="#83DBEF" transform="translate(220.765625,150.8046875)"/>
<path d="M0 0 C11.68842209 1.87849641 22.57543754 7.57054039 33 13 C28.41201223 14.53271273 26.22055258 13.02911182 22 11 C22 10.34 22 9.68 22 9 C21.443125 8.90203125 20.88625 8.8040625 20.3125 8.703125 C15.36361179 7.73341042 11.23877135 6.33398144 6.796875 3.953125 C4.59683792 2.78614881 2.33009031 1.87378386 0 1 C0 0.67 0 0.34 0 0 Z " fill="#85DAEF" transform="translate(179,2)"/>
<path d="M0 0 C0.66 0 1.32 0 2 0 C3.60725635 3.21451269 3.05748185 6.43612536 3 10 C2.34 10 1.68 10 1 10 C0.87625 10.70125 0.7525 11.4025 0.625 12.125 C-0.50883905 17.34065964 -2.26794393 21.44657322 -5 26 C-5.71143088 27.98451771 -6.38991336 29.98202112 -7 32 C-7.66 32 -8.32 32 -9 32 C-7.65036047 27.55412862 -6.17265336 23.29668285 -4.20703125 19.0859375 C-3.88677979 18.39306641 -3.56652832 17.70019531 -3.23657227 16.98632812 C-2.58899073 15.60046198 -1.92710548 14.2211721 -1.24975586 12.84960938 C0.97494162 8.06429982 1.20443327 5.15229787 0 0 Z " fill="#81D7EF" transform="translate(140,230)"/>
<path d="M0 0 C0.33 0 0.66 0 1 0 C1.33 2.31 1.66 4.62 2 7 C1.01 7.33 0.02 7.66 -1 8 C-1 15.59 -1 23.18 -1 31 C-3.15323312 26.69353376 -3.34517117 23.54646679 -3.3125 18.875 C-3.31121094 18.12033447 -3.30992187 17.36566895 -3.30859375 16.58813477 C-3.20762221 10.69581434 -2.26070614 5.47682975 0 0 Z " fill="#7FD6ED" transform="translate(220,217)"/>
<path d="M0 0 C0 0.66 0 1.32 0 2 C-1 3 -2 4 -3 5 C-3.33 5.99 -3.66 6.98 -4 8 C-10.435 8.495 -10.435 8.495 -17 9 C-17.33 8.34 -17.66 7.68 -18 7 C-17.09636719 6.66226562 -16.19273437 6.32453125 -15.26171875 5.9765625 C-14.08222656 5.53054688 -12.90273437 5.08453125 -11.6875 4.625 C-9.92986328 3.96371094 -9.92986328 3.96371094 -8.13671875 3.2890625 C-0.13333333 0 -0.13333333 0 0 0 Z " fill="#77DAF4" transform="translate(195,437)"/>
<path d="M0 0 C3.92311854 0.47842909 7.19568399 1.40106331 10.7890625 3.03515625 C15.77967542 5.21303856 20.91166539 7.06413736 26 9 C26 9.66 26 10.32 26 11 C26.99 11.33 27.98 11.66 29 12 C29 12.66 29 13.32 29 14 C23.15291165 11.79536013 17.57907271 8.97588018 11.94921875 6.27734375 C8.00682784 4.3961714 4.0910053 2.5425102 0 1 C0 0.67 0 0.34 0 0 Z " fill="#81D8EF" transform="translate(442,179)"/>
<path d="M0 0 C0.99 0.33 1.98 0.66 3 1 C3.50755297 2.62416952 4.00063706 4.25463543 4.41015625 5.90625 C5.90832375 11.22424853 8.44655057 16.17444626 11.3125 20.875 C11.869375 21.90625 12.42625 22.9375 13 24 C12.67 24.99 12.34 25.98 12 27 C6.68311766 20.21249063 0 8.94779881 0 0 Z " fill="#89DBF0" transform="translate(104,424)"/>
<path d="M0 0 C0.33 0.99 0.66 1.98 1 3 C-4.75 7 -4.75 7 -7 7 C-7.226875 7.804375 -7.45375 8.60875 -7.6875 9.4375 C-9 12 -9 12 -11.375 12.875 C-13.88461867 12.99450565 -15.60747632 12.66176187 -18 12 C-17.28714844 11.55269531 -16.57429687 11.10539062 -15.83984375 10.64453125 C-10.44331467 7.23810845 -5.14638875 3.77401842 0 0 Z " fill="#81DAF1" transform="translate(217,422)"/>
<path d="M0 0 C0.67184618 2.10251861 1.33730968 4.20707763 2 6.3125 C2.37125 7.48425781 2.7425 8.65601563 3.125 9.86328125 C4 13 4 13 4 16 C4.66 16 5.32 16 6 16 C6 18.31 6 20.62 6 23 C3.87738924 20.87738924 3.41288502 19.73100098 2.4921875 16.9375 C2.22792969 16.14085937 1.96367188 15.34421875 1.69140625 14.5234375 C1.42199219 13.69070312 1.15257813 12.85796875 0.875 12 C0.59785156 11.16726562 0.32070312 10.33453125 0.03515625 9.4765625 C-2 3.28086515 -2 3.28086515 -2 1 C-4.97 1.66 -7.94 2.32 -11 3 C-10 1 -10 1 -7.75 -0.1875 C-4.66904915 -1.09778093 -3.07141884 -0.72662761 0 0 Z " fill="#80D8EF" transform="translate(119,169)"/>
<path d="M0 0 C0 0.33 0 0.66 0 1 C-7.425 2.485 -7.425 2.485 -15 4 C-14.6390625 5.05960938 -14.278125 6.11921875 -13.90625 7.2109375 C-13.43734207 8.59890499 -12.96860069 9.98692875 -12.5 11.375 C-12.14228516 12.42300781 -12.14228516 12.42300781 -11.77734375 13.4921875 C-10 18.7734375 -10 18.7734375 -10 21 C-10.99 20.67 -11.98 20.34 -13 20 C-13.9140625 17.53125 -13.9140625 17.53125 -14.625 14.5 C-15.23137716 10.95087626 -15.23137716 10.95087626 -17 8 C-17.04080783 6.00041636 -17.04254356 3.99954746 -17 2 C-11.19233704 0.4943096 -6.0018137 -0.21824777 0 0 Z " fill="#7ED8EE" transform="translate(156,160)"/>
<path d="M0 0 C2.6687814 2.6687814 3.32362727 5.31740129 4.5625 8.875 C4.99691406 10.10992187 5.43132812 11.34484375 5.87890625 12.6171875 C6.69472241 15.0788488 7.43506147 17.47364567 8 20 C5.03821227 21.67110042 2.62928808 22.32682752 -0.75 22.625 C-1.54921875 22.69976562 -2.3484375 22.77453125 -3.171875 22.8515625 C-4.07679688 22.92503906 -4.07679688 22.92503906 -5 23 C-5 22.34 -5 21.68 -5 21 C-2.03 20.34 0.94 19.68 4 19 C4 15.06287646 3.41919126 13.08740012 2 9.5 C0.58080874 5.91259988 0 3.93712354 0 0 Z " fill="#87DAEE" transform="translate(383,288)"/>
<path d="M0 0 C2.475 0.495 2.475 0.495 5 1 C1.31806536 4.06254377 -2.48884595 6.67155839 -6.5625 9.1875 C-7.67753906 9.88230469 -8.79257812 10.57710938 -9.94140625 11.29296875 C-12.42100018 12.67685451 -14.23625637 13.5472596 -17 14 C-16.5 12.1875 -16.5 12.1875 -15 10 C-12.95953389 9.06248855 -10.92300694 8.37054463 -8.77734375 7.7109375 C-6.79665752 7.14695157 -6.79665752 7.14695157 -6 5 C-5.01 5 -4.02 5 -3 5 C-3 4.34 -3 3.68 -3 3 C-2.01 3 -1.02 3 0 3 C0 2.01 0 1.02 0 0 Z " fill="#7FDBF0" transform="translate(489,290)"/>
<path d="M0 0 C2.89961266 3.86615021 3.80156329 5.3367374 4 10 C1.86441798 12.85203535 -0.06070982 13.47208852 -3.5 14.0625 C-6.78172852 14.63680249 -8.12102671 15.08068448 -11 17 C-13.33199388 17.07905064 -15.66832622 17.08798769 -18 17 C-15.50321175 15.3354745 -13.97578432 14.55263843 -11.20703125 13.7109375 C-10.49482422 13.49179688 -9.78261719 13.27265625 -9.04882812 13.046875 C-8.31083984 12.82515625 -7.57285156 12.6034375 -6.8125 12.375 C-6.06291016 12.14554688 -5.31332031 11.91609375 -4.54101562 11.6796875 C-2.69534551 11.11540619 -0.84784504 10.55711784 1 10 C0.505 5.05 0.505 5.05 0 0 Z " fill="#88DBF1" transform="translate(108,136)"/>
<path d="M0 0 C2 1.25 2 1.25 4 3 C4 4.32 4 5.64 4 7 C3.34 7 2.68 7 2 7 C2 5.68 2 4.36 2 3 C1.06800781 3.20496094 0.13601563 3.40992188 -0.82421875 3.62109375 C-9.22743895 5.39690065 -17.398765 6.57936625 -26 7 C-26 6.34 -26 5.68 -26 5 C-25.18015625 4.95101563 -24.3603125 4.90203125 -23.515625 4.8515625 C-22.43796875 4.77679688 -21.3603125 4.70203125 -20.25 4.625 C-19.18265625 4.55539062 -18.1153125 4.48578125 -17.015625 4.4140625 C-14.07300882 4.17460092 -14.07300882 4.17460092 -11.9375 2.96875 C-9.43119963 1.71559982 -7.53354035 1.80174894 -4.75 1.875 C-3.85796875 1.89304687 -2.9659375 1.91109375 -2.046875 1.9296875 C-1.03367187 1.96449219 -1.03367187 1.96449219 0 2 C0 1.34 0 0.68 0 0 Z " fill="#7BD8EF" transform="translate(394,328)"/>
<path d="M0 0 C0.99 0 1.98 0 3 0 C3 0.66 3 1.32 3 2 C3.66 2 4.32 2 5 2 C6.85776765 5.13498292 7.20140476 7.37471432 7 11 C7.66 11 8.32 11 9 11 C9.144375 12.134375 9.28875 13.26875 9.4375 14.4375 C9.61171478 17.80777201 9.61171478 17.80777201 11 19 C11.04063832 20.66617115 11.042721 22.33388095 11 24 C8.93171476 21.93171476 8.31932087 20.65232267 7.2734375 17.97265625 C6.9640625 17.18052734 6.6546875 16.38839844 6.3359375 15.57226562 C6.01882813 14.74404297 5.70171875 13.91582031 5.375 13.0625 C5.05015625 12.23814453 4.7253125 11.41378906 4.390625 10.56445312 C2 4.38197545 2 4.38197545 2 1 C1.34 0.67 0.68 0.34 0 0 Z " fill="#7CD9F0" transform="translate(372,264)"/>
<path d="M0 0 C0.66 0 1.32 0 2 0 C1.54350551 3.53783229 0.41342505 6.32235654 -1.125 9.5 C-2.79323115 13.16285534 -3.43657335 15.10072947 -2 19 C-1.649375 20.258125 -1.29875 21.51625 -0.9375 22.8125 C-0.628125 23.864375 -0.31875 24.91625 0 26 C-3.42754276 23.71497149 -3.88441117 22.86165366 -5 19 C-5.34630015 12.53573045 -5.07109123 8.08886404 -1 3 C-0.67 2.01 -0.34 1.02 0 0 Z " fill="#81D9ED" transform="translate(391,220)"/>
<path d="M0 0 C5.05407007 3.15879379 9.83802836 6.71126781 14 11 C14 11.66 14 12.32 14 13 C14.66 13 15.32 13 16 13 C20 17.47058824 20 17.47058824 20 20 C19.34 20 18.68 20 18 20 C17.360625 19.195625 16.72125 18.39125 16.0625 17.5625 C14.18964068 14.76279268 14.18964068 14.76279268 11 14 C11 12.68 11 11.36 11 10 C8.66785852 8.79371992 6.50357861 7.8345262 4 7 C3.67 6.01 3.34 5.02 3 4 C2.01 3.34 1.02 2.68 0 2 C0 1.34 0 0.68 0 0 Z " fill="#84DAEF" transform="translate(497,182)"/>
<path d="M0 0 C1.35556178 4.06668535 -0.11654324 6.54440093 -1.6875 10.3125 C-1.94466797 10.96412109 -2.20183594 11.61574219 -2.46679688 12.28710938 C-4.21266667 16.57242614 -6.25318561 20.2701152 -9 24 C-9.33 24 -9.66 24 -10 24 C-10.25 21.1875 -10.25 21.1875 -10 18 C-8.125 16.4375 -8.125 16.4375 -6 15 C-4.73995189 12.47990378 -4.0477127 10.27264401 -3.5625 7.5 C-2.90215935 4.56515266 -1.64276757 2.49986369 0 0 Z " fill="#82DBF1" transform="translate(423,426)"/>
<path d="M0 0 C2.97 0 5.94 0 9 0 C9 0.33 9 0.66 9 1 C7.96746094 1.00902344 6.93492187 1.01804687 5.87109375 1.02734375 C0.51345649 2.37351093 -0.99814466 5.10264826 -3.9375 9.5625 C-4.43056641 10.27341797 -4.92363281 10.98433594 -5.43164062 11.71679688 C-6.64006279 13.46490273 -7.82266682 15.23080674 -9 17 C-10.1171875 13.28125 -10.1171875 13.28125 -9.0625 10.75 C-8.711875 10.1725 -8.36125 9.595 -8 9 C-7.01 9 -6.02 9 -5 9 C-4.731875 8.030625 -4.46375 7.06125 -4.1875 6.0625 C-3.795625 5.051875 -3.40375 4.04125 -3 3 C-2.01 2.67 -1.02 2.34 0 2 C0 1.34 0 0.68 0 0 Z " fill="#91DFF1" transform="translate(324,340)"/>
<path d="M0 0 C0 0.66 0 1.32 0 2 C-1.4562545 2.67119549 -2.91507867 3.33681807 -4.375 4 C-5.18710938 4.37125 -5.99921875 4.7425 -6.8359375 5.125 C-9 6 -9 6 -11 6 C-11 6.66 -11 7.32 -11 8 C-12.60064843 8.53154742 -14.20568874 9.04988353 -15.8125 9.5625 C-16.70582031 9.85253906 -17.59914063 10.14257812 -18.51953125 10.44140625 C-21 11 -21 11 -24 10 C-20.56703905 8.32386272 -17.12793117 6.66074303 -13.6875 5 C-12.71103516 4.52304688 -11.73457031 4.04609375 -10.72851562 3.5546875 C-9.79072266 3.10351562 -8.85292969 2.65234375 -7.88671875 2.1875 C-6.59060669 1.55908203 -6.59060669 1.55908203 -5.26831055 0.91796875 C-3 0 -3 0 0 0 Z " fill="#81DAEF" transform="translate(77,158)"/>
<path d="M0 0 C2.62487216 3.93730824 4.04861321 8.07927532 5.6875 12.5 C6.02072266 13.36753906 6.35394531 14.23507812 6.69726562 15.12890625 C7.16229492 16.37994141 7.16229492 16.37994141 7.63671875 17.65625 C7.92248779 18.41744141 8.20825684 19.17863281 8.50268555 19.96289062 C9 22 9 22 8 25 C7.67 23.68 7.34 22.36 7 21 C6.34 21 5.68 21 5 21 C5 21.66 5 22.32 5 23 C4.34 22.67 3.68 22.34 3 22 C3.2475 21.030625 3.495 20.06125 3.75 19.0625 C4.40621247 14.74024721 2.82325057 11.96422967 0.92578125 8.15625 C-0.27350322 5.36297985 -0.3076669 2.99975226 0 0 Z " fill="#7EDAF0" transform="translate(398,262)"/>
<path d="M0 0 C1.5607933 4.68237989 -0.14446014 8.54670435 -2 13 C-4.375 15.875 -4.375 15.875 -7 18 C-7.928125 18.763125 -8.85625 19.52625 -9.8125 20.3125 C-10.534375 20.869375 -11.25625 21.42625 -12 22 C-12.66 21.67 -13.32 21.34 -14 21 C-12.948125 20.319375 -12.948125 20.319375 -11.875 19.625 C-6.13338734 14.38265801 -2.80416397 7.16619681 0 0 Z " fill="#84DAF0" transform="translate(400,422)"/>
<path d="M0 0 C8.6274658 -0.20705918 16.59628191 -0.21462689 25 2 C25 2.66 25 3.32 25 4 C16.89963866 3.45423097 8.98651182 2.45852964 1 1 C0.67 1.66 0.34 2.32 0 3 C0 2.01 0 1.02 0 0 Z " fill="#7CD8F0" transform="translate(343,155)"/>
<path d="M0 0 C0.33 0 0.66 0 1 0 C1.08948558 4.47427924 0.85743651 8.60563789 0 13 C2.31 13.66 4.62 14.32 7 15 C5 17 5 17 3.0546875 17.1953125 C1.03645833 17.13020833 -0.98177083 17.06510417 -3 17 C-2.69268013 14.35346869 -2.37940678 11.707885 -2.0625 9.0625 C-1.97548828 8.30775391 -1.88847656 7.55300781 -1.79882812 6.77539062 C-1.11328125 1.11328125 -1.11328125 1.11328125 0 0 Z " fill="#7FD7F3" transform="translate(420,133)"/>
<path d="M0 0 C0.99 0.495 0.99 0.495 2 1 C1.01 1.495 1.01 1.495 0 2 C0 1.34 0 0.68 0 0 Z M12 1 C11.4652002 1.23710693 10.93040039 1.47421387 10.37939453 1.71850586 C7.96104794 2.79101971 5.54302048 3.86425115 3.125 4.9375 C2.28324219 5.31068359 1.44148438 5.68386719 0.57421875 6.06835938 C-0.23144531 6.42607422 -1.03710938 6.78378906 -1.8671875 7.15234375 C-2.61081543 7.48226318 -3.35444336 7.81218262 -4.12060547 8.15209961 C-5.42622365 8.74113727 -6.71887418 9.35943709 -8 10 C-7.34 8.68 -6.68 7.36 -6 6 C-5.01 6 -4.02 6 -3 6 C-2.67 4.68 -2.34 3.36 -2 2 C-0.35 2.33 1.3 2.66 3 3 C3 2.34 3 1.68 3 1 C8.625 -0.125 8.625 -0.125 12 1 Z " fill="#78D8F3" transform="translate(339,26)"/>
<path d="M0 0 C6.0546875 0.390625 6.0546875 0.390625 8 1 C8.68524006 2.32388379 9.35025039 3.65834145 10 5 C12.09207219 6.44030248 12.09207219 6.44030248 14.5 7.5625 C17.81671801 9.20470616 18.87745048 9.81617571 21 13 C16.13752978 11.32163257 12.00929388 8.66807039 7.6875 5.9375 C6.94693359 5.47794922 6.20636719 5.01839844 5.44335938 4.54492188 C3.60937791 3.39382383 1.8019624 2.20060244 0 1 C0 0.67 0 0.34 0 0 Z " fill="#7ED9EF" transform="translate(299,443)"/>
<path d="M0 0 C2.15278442 3.22917663 3.84965015 6.59088886 5.5625 10.0625 C5.87896484 10.69994141 6.19542969 11.33738281 6.52148438 11.99414062 C7.3492485 13.66197111 8.17476539 15.33091647 9 17 C9.33 17.66 9.66 18.32 10 19 C9.401875 18.814375 8.80375 18.62875 8.1875 18.4375 C5.83591238 17.77906313 5.83591238 17.77906313 3 19 C3.0928125 17.515 3.0928125 17.515 3.1875 16 C3.21053602 12.21441389 2.16805894 9.33109695 0.65625 5.89453125 C0 4 0 4 0 0 Z " fill="#7CDBF0" transform="translate(127,419)"/>
<path d="M0 0 C2.44040643 0.20535127 4.82700955 0.47711432 7.25 0.8125 C7.91902344 0.89564453 8.58804688 0.97878906 9.27734375 1.06445312 C13.12201349 1.58185956 16.47277962 2.37993948 20 4 C15.97985339 5.56454159 12.30074319 4.46223974 8.25 3.5625 C7.55261719 3.41490234 6.85523438 3.26730469 6.13671875 3.11523438 C4.4227979 2.75131967 2.71115419 2.37670932 1 2 C0.67 3.98 0.34 5.96 0 8 C-0.33 8 -0.66 8 -1 8 C-1.04241723 5.66705225 -1.04092937 3.33297433 -1 1 C-0.67 0.67 -0.34 0.34 0 0 Z " fill="#83DAF0" transform="translate(132,329)"/>
<path d="M0 0 C1.60031344 3.20062687 0.03173691 5.72271806 -1 9 C-1.99 9 -2.98 9 -4 9 C-4.2475 9.70125 -4.495 10.4025 -4.75 11.125 C-6.17180238 14.39514548 -7.87246288 17.141122 -10 20 C-10.66 20 -11.32 20 -12 20 C-10.37885498 15.20178341 -7.70723241 11.3327141 -4.875 7.1875 C-4.40707031 6.49462891 -3.93914062 5.80175781 -3.45703125 5.08789062 C-2.30887563 3.38908895 -1.15500633 1.69415136 0 0 Z " fill="#7DD7F0" transform="translate(325,298)"/>
<path d="M0 0 C0.99 0.33 1.98 0.66 3 1 C3 1.99 3 2.98 3 4 C2.34 4 1.68 4 1 4 C0.34 5.65 -0.32 7.3 -1 9 C-1.66 9 -2.32 9 -3 9 C-3.226875 9.639375 -3.45375 10.27875 -3.6875 10.9375 C-5 13 -5 13 -7.625 13.75 C-8.40875 13.8325 -9.1925 13.915 -10 14 C-6.49102731 9.81576108 -2.91939465 5.80411834 1 2 C0.67 1.34 0.34 0.68 0 0 Z " fill="#7FD9F0" transform="translate(246,394)"/>
<path d="M0 0 C0.66 0 1.32 0 2 0 C0.62820313 7.48252838 -1.92163279 14.05604954 -5 21 C-6.15941038 17.52176885 -5.70820884 15.54104422 -5 12 C-4.34 12 -3.68 12 -3 12 C-2.87625 11.13375 -2.7525 10.2675 -2.625 9.375 C-2.01941879 6.10486147 -1.11693965 3.12743101 0 0 Z " fill="#7FD8F0" transform="translate(402,192)"/>
<path d="M0 0 C0.99 0 1.98 0 3 0 C2.625 1.9375 2.625 1.9375 2 4 C1.01 4.495 1.01 4.495 0 5 C-0.33 5.99 -0.66 6.98 -1 8 C-2.77734375 9.5703125 -2.77734375 9.5703125 -4.9375 11.125 C-5.64777344 11.64320312 -6.35804688 12.16140625 -7.08984375 12.6953125 C-9 14 -9 14 -11 15 C-9.37331769 11.3069915 -7.08687593 8.38370805 -4.5625 5.25 C-3.78003906 4.26515625 -2.99757812 3.2803125 -2.19140625 2.265625 C-1.46824219 1.51796875 -0.74507812 0.7703125 0 0 Z " fill="#7FD6EE" transform="translate(245,76)"/>
<path d="M0 0 C0.33 0.66 0.66 1.32 1 2 C-1.6773281 4.20485843 -4.34397283 6.22490532 -7.25 8.125 C-10.05983382 9.71377738 -10.05983382 9.71377738 -11 12 C-11.66 12 -12.32 12 -13 12 C-13 12.66 -13 13.32 -13 14 C-14.65 14.66 -16.3 15.32 -18 16 C-16.6167621 12.74170629 -15.15201519 11.06337617 -12.3046875 8.984375 C-11.58925781 8.45585937 -10.87382812 7.92734375 -10.13671875 7.3828125 C-9.01716797 6.57457031 -9.01716797 6.57457031 -7.875 5.75 C-7.12089844 5.19570313 -6.36679687 4.64140625 -5.58984375 4.0703125 C-3.73177256 2.70615897 -1.86851184 1.34979822 0 0 Z " fill="#81D7EC" transform="translate(305,23)"/>
<path d="M0 0 C-1.40071493 5.29158974 -4.85487245 7.77478044 -9 11 C-9 9.68 -9 8.36 -9 7 C-8.01 7 -7.02 7 -6 7 C-6 5.68 -6 4.36 -6 3 C-6.66 2.67 -7.32 2.34 -8 2 C-4.91190305 0.23537317 -3.76687864 0 0 0 Z " fill="#75DAF2" transform="translate(290,385)"/>
<path d="M0 0 C3.57294032 1.32002058 6.63953492 2.89521388 9.8125 5 C10.60269531 5.515625 11.39289063 6.03125 12.20703125 6.5625 C12.79871094 7.036875 13.39039063 7.51125 14 8 C14 8.66 14 9.32 14 10 C15.32 10 16.64 10 18 10 C18.33 11.32 18.66 12.64 19 14 C19.66 14 20.32 14 21 14 C20.67 14.66 20.34 15.32 20 16 C19.14277344 15.33613281 18.28554687 14.67226563 17.40234375 13.98828125 C16.24762754 13.09605422 15.0926638 12.20414746 13.9375 11.3125 C13.34493408 10.85496338 12.75236816 10.39742676 12.1418457 9.92602539 C9.031562 7.533139 5.90561124 5.18485868 2.6875 2.9375 C1.800625 2.298125 0.91375 1.65875 0 1 C0 0.67 0 0.34 0 0 Z " fill="#93DFF1" transform="translate(209,42)"/>
<path d="M0 0 C4.90312509 2.0706139 6.6220685 5.53603148 9.3125 9.9375 C9.77978516 10.66646484 10.24707031 11.39542969 10.72851562 12.14648438 C11.16486328 12.84966797 11.60121094 13.55285156 12.05078125 14.27734375 C12.64886597 15.24015259 12.64886597 15.24015259 13.2590332 16.22241211 C14 18 14 18 13 21 C10.8296677 17.68988803 8.66435262 14.37652434 6.5 11.0625 C5.87996094 10.11697266 5.25992187 9.17144531 4.62109375 8.19726562 C4.03457031 7.29814453 3.44804687 6.39902344 2.84375 5.47265625 C2.02680664 4.22367554 2.02680664 4.22367554 1.19335938 2.94946289 C0 1 0 1 0 0 Z " fill="#82D9ED" transform="translate(314,155)"/>
<path d="M0 0 C-1.36983503 3.16115776 -1.9890638 3.9927092 -5 6 C-9.1384113 7.42963299 -11.80858283 8.29887873 -16 7 C-13.71070947 5.82845707 -11.41881638 4.66261926 -9.125 3.5 C-8.47402344 3.16613281 -7.82304687 2.83226562 -7.15234375 2.48828125 C-2.2265625 0 -2.2265625 0 0 0 Z " fill="#87DCF3" transform="translate(471,278)"/>
<path d="M0 0 C-2.43520414 1.62346943 -4.14948912 2.52474701 -6.8359375 3.47265625 C-7.57070312 3.73240234 -8.30546875 3.99214844 -9.0625 4.25976562 C-9.825625 4.52466797 -10.58875 4.78957031 -11.375 5.0625 C-12.13039063 5.33126953 -12.88578125 5.60003906 -13.6640625 5.87695312 C-17.41907425 7.19317665 -21.05762237 8.36387931 -25 9 C-25 8.34 -25 7.68 -25 7 C-7.65316267 -0.27090841 -7.65316267 -0.27090841 0 0 Z " fill="#86D8F0" transform="translate(107,172)"/>
<path d="M0 0 C1.28970703 0.30744141 1.28970703 0.30744141 2.60546875 0.62109375 C10.77310032 2.48263682 18.61994382 3.59630959 27 4 C27 4.33 27 4.66 27 5 C23.99943916 5.08166849 21.0011461 5.14081551 18 5.1875 C16.74123047 5.22520508 16.74123047 5.22520508 15.45703125 5.26367188 C9.59597871 5.33182365 5.36833894 4.36728835 0 2 C0 1.34 0 0.68 0 0 Z " fill="#7DD7EF" transform="translate(350,444)"/>
<path d="M0 0 C0.66 0 1.32 0 2 0 C1.39733215 4.50727647 -0.36599794 7.8587963 -2.5625 11.8125 C-3.0565332 12.7087207 -3.0565332 12.7087207 -3.56054688 13.62304688 C-4.36773267 15.08533998 -5.18304917 16.5431399 -6 18 C-6.33 18 -6.66 18 -7 18 C-6.53199289 13.94393835 -6.12046792 10.53411321 -4 7 C-3.34 7 -2.68 7 -2 7 C-1.855625 6.401875 -1.71125 5.80375 -1.5625 5.1875 C-1.1127561 3.43849596 -0.57107659 1.71322977 0 0 Z " fill="#84DAF0" transform="translate(179,210)"/>
<path d="M0 0 C0.33 0.66 0.66 1.32 1 2 C0.25 4.0625 0.25 4.0625 -1 6 C-1.99 6.33 -2.98 6.66 -4 7 C-5.2065625 8.2375 -5.2065625 8.2375 -6.4375 9.5 C-8.83695476 11.84093148 -9.77134114 12.64126013 -13 13 C-9.13242719 8.04467233 -4.81123996 4.03523352 0 0 Z " fill="#88DBF4" transform="translate(279,43)"/>
<path d="M0 0 C2.64 0.66 5.28 1.32 8 2 C8 2.33 8 2.66 8 3 C6.10507994 3.33848652 4.20901534 3.67056911 2.3125 4 C1.25675781 4.185625 0.20101562 4.37125 -0.88671875 4.5625 C-3.64904062 4.95068074 -6.21742043 5.08259976 -9 5 C-9 4.34 -9 3.68 -9 3 C-4.545 2.505 -4.545 2.505 0 2 C0 1.34 0 0.68 0 0 Z " fill="#7AD8F2" transform="translate(177,153)"/>
<path d="M0 0 C2.25256041 1.0991772 4.50198174 2.20410211 6.75 3.3125 C7.38421875 3.62123047 8.0184375 3.92996094 8.671875 4.24804688 C12.03147912 5.910351 15.09858921 7.61879165 18 10 C11.18207271 10 5.36774498 6.02580874 0 2 C0 1.34 0 0.68 0 0 Z " fill="#8DDAF1" transform="translate(54,275)"/>
<path d="M0 0 C0.66 0 1.32 0 2 0 C2 0.99 2 1.98 2 3 C2.66 3 3.32 3 4 3 C4 3.99 4 4.98 4 6 C4.66 6 5.32 6 6 6 C6 7.32 6 8.64 6 10 C6.66 10 7.32 10 8 10 C8.33 11.98 8.66 13.96 9 16 C4.49583156 12.32993682 2.23209799 7.25091904 0 2 C0 1.34 0 0.68 0 0 Z " fill="#88DEF1" transform="translate(219,250)"/>
<path d="M0 0 C1.7792818 5.60473766 -0.0073894 10.88530785 -2.4375 16.0625 C-2.953125 16.701875 -3.46875 17.34125 -4 18 C-4.99 18 -5.98 18 -7 18 C-6.72414063 17.31550781 -6.44828125 16.63101563 -6.1640625 15.92578125 C-4.87623368 12.68892291 -3.62335037 9.43978124 -2.375 6.1875 C-1.92898438 5.02605469 -1.48296875 3.86460937 -1.0234375 2.66796875 C-0.68570312 1.78753906 -0.34796875 0.90710938 0 0 Z " fill="#89DCF3" transform="translate(379,190)"/>
<path d="M0 0 C5.44456709 2.57900546 10.22425605 5.31869737 15 9 C15 9.33 15 9.66 15 10 C12.75 10.25 12.75 10.25 10 10 C7.875 8.0625 7.875 8.0625 6 6 C5.01 5.67 4.02 5.34 3 5 C3 4.34 3 3.68 3 3 C2.01 2.67 1.02 2.34 0 2 C0 1.34 0 0.68 0 0 Z " fill="#84DBEE" transform="translate(482,172)"/>
<path d="M0 0 C2.19050021 0.09017996 4.378466 0.24666208 6.5625 0.4375 C7.76003906 0.53933594 8.95757812 0.64117188 10.19140625 0.74609375 C11.11824219 0.82988281 12.04507813 0.91367187 13 1 C13 1.33 13 1.66 13 2 C11.58847656 2.16435547 11.58847656 2.16435547 10.1484375 2.33203125 C8.90320313 2.49058594 7.65796875 2.64914063 6.375 2.8125 C4.53035156 3.03873047 4.53035156 3.03873047 2.6484375 3.26953125 C-1.02630923 4.00526748 -3.71572112 5.24228477 -7 7 C-7.66 7 -8.32 7 -9 7 C-9 6.34 -9 5.68 -9 5 C-8.43410156 4.72285156 -7.86820313 4.44570313 -7.28515625 4.16015625 C-6.55167969 3.79792969 -5.81820312 3.43570312 -5.0625 3.0625 C-3.96615234 2.52302734 -3.96615234 2.52302734 -2.84765625 1.97265625 C-1.03750973 1.13628173 -1.03750973 1.13628173 0 0 Z " fill="#87DAF1" transform="translate(150,21)"/>
<path d="M0 0 C0 0.66 0 1.32 0 2 C-4.73898266 4.45153075 -9.12062333 4.23154206 -14.3125 4.125 C-15.14845703 4.11597656 -15.98441406 4.10695313 -16.84570312 4.09765625 C-18.89725969 4.07420989 -20.94866777 4.03834266 -23 4 C-23 3.67 -23 3.34 -23 3 C-21.81921875 2.86722656 -20.6384375 2.73445313 -19.421875 2.59765625 C-17.86456738 2.4194102 -16.30727658 2.24101707 -14.75 2.0625 C-13.58404297 1.93198242 -13.58404297 1.93198242 -12.39453125 1.79882812 C-11.26337891 1.66831055 -11.26337891 1.66831055 -10.109375 1.53515625 C-9.07248535 1.41732788 -9.07248535 1.41732788 -8.01464844 1.29711914 C-5.96691361 1.02895128 -5.96691361 1.02895128 -3.86816406 0.46655273 C-2 0 -2 0 0 0 Z " fill="#7CD7F0" transform="translate(176,445)"/>
<path d="M0 0 C0.43570312 0.37511719 0.87140625 0.75023437 1.3203125 1.13671875 C5.18607599 4.45859777 9.07657648 7.74642927 13 11 C12.01 11.33 11.02 11.66 10 12 C9.443125 11.38125 8.88625 10.7625 8.3125 10.125 C6.15086181 7.84331642 6.15086181 7.84331642 3.3125 7.125 C2.549375 6.75375 1.78625 6.3825 1 6 C0.1875 2.875 0.1875 2.875 0 0 Z " fill="#8BDCF0" transform="translate(283,398)"/>
<path d="M0 0 C4.5503959 3.91839647 7.24859663 8.2112707 9 14 C8.67 14.66 8.34 15.32 8 16 C4 10.5 4 10.5 4 6 C2.68 5.67 1.36 5.34 0 5 C0 3.35 0 1.7 0 0 Z " fill="#85D9EF" transform="translate(517,202)"/>
<path d="M0 0 C0.66 0 1.32 0 2 0 C2.433125 0.9590625 2.433125 0.9590625 2.875 1.9375 C3.82823451 4.15206079 3.82823451 4.15206079 6 5 C6.33333333 6.33333333 6.66666667 7.66666667 7 9 C7.66 9.33 8.32 9.66 9 10 C9.625 12.5625 9.625 12.5625 10 15 C5.45924219 10.85989729 2.28157862 6.17609824 -1 1 C-0.67 0.67 -0.34 0.34 0 0 Z " fill="#89DCEF" transform="translate(206,343)"/>
<path d="M0 0 C0 3 0 3 -1.609375 4.859375 C-2.31578125 5.48328125 -3.0221875 6.1071875 -3.75 6.75 C-4.44609375 7.38421875 -5.1421875 8.0184375 -5.859375 8.671875 C-6.91898438 9.32929688 -6.91898438 9.32929688 -8 10 C-9.32 9.67 -10.64 9.34 -12 9 C-8.04 6.03 -4.08 3.06 0 0 Z " fill="#88DDF1" transform="translate(230,412)"/>
<path d="M0 0 C0.87840996 3.09720845 0.99435406 4.90645403 0 8 C-0.66 8 -1.32 8 -2 8 C-1.67 9.32 -1.34 10.64 -1 12 C-1.99 12 -2.98 12 -4 12 C-4.33 12.99 -4.66 13.98 -5 15 C-6 12 -6 12 -4.78515625 9.08203125 C-4.21667969 8.00308594 -3.64820313 6.92414063 -3.0625 5.8125 C-2.49660156 4.72582031 -1.93070312 3.63914063 -1.34765625 2.51953125 C-0.90292969 1.68808594 -0.45820313 0.85664063 0 0 Z " fill="#89DCF1" transform="translate(355,244)"/>
<path d="M0 0 C0.33 0 0.66 0 1 0 C1.03738281 0.68964844 1.07476563 1.37929687 1.11328125 2.08984375 C1.56078148 8.48646465 2.65649801 14.03070248 5 20 C4.01 20.33 3.02 20.66 2 21 C-0.21211746 13.94887561 -0.20177072 7.35342179 0 0 Z " fill="#94E2F4" transform="translate(23,231)"/>
<path d="M0 0 C0.33 0 0.66 0 1 0 C1.36666667 5.5 1.36666667 5.5 -0.375 7.875 C-2 9 -2 9 -4 9 C-4.33 9.99 -4.66 10.98 -5 12 C-5.33 11.34 -5.66 10.68 -6 10 C-5.0390625 7.87109375 -5.0390625 7.87109375 -3.625 5.4375 C-3.16351563 4.63183594 -2.70203125 3.82617188 -2.2265625 2.99609375 C-1 1 -1 1 0 0 Z " fill="#80DAF1" transform="translate(227,205)"/>
<path d="M0 0 C2.625 0.375 2.625 0.375 5 1 C4.04578192 2.14926266 3.08647955 3.29430541 2.125 4.4375 C1.59132813 5.07558594 1.05765625 5.71367187 0.5078125 6.37109375 C-1 8 -1 8 -3 9 C-2.25 2.25 -2.25 2.25 0 0 Z " fill="#7DDCF5" transform="translate(36,204)"/>
<path d="M0 0 C-5.89174281 2.74390859 -11.79522136 5.06375702 -18 7 C-15.85946942 4.65879468 -13.85334961 3.24763409 -11 1.875 C-10.319375 1.54242188 -9.63875 1.20984375 -8.9375 0.8671875 C-5.46142644 -0.68863575 -3.61679516 -1.12245367 0 0 Z " fill="#89D9EC" transform="translate(255,190)"/>
<path d="M0 0 C0.99 0.33 1.98 0.66 3 1 C2.37942344 3.08465525 1.7533655 5.16767928 1.125 7.25 C0.77695313 8.41015625 0.42890625 9.5703125 0.0703125 10.765625 C-0.78532389 13.35127072 -1.6937546 15.62286874 -3 18 C-2.88521587 15.93690624 -2.75773802 13.87451646 -2.625 11.8125 C-2.55539063 10.66394531 -2.48578125 9.51539063 -2.4140625 8.33203125 C-2.02490426 5.20040883 -1.3190149 2.84714191 0 0 Z " fill="#7FDAF0" transform="translate(129,40)"/>
<path d="M0 0 C-0.33 0.99 -0.66 1.98 -1 3 C-1.66 3 -2.32 3 -3 3 C-3.33 3.66 -3.66 4.32 -4 5 C-4.99 5.495 -4.99 5.495 -6 6 C-8.625 5.0625 -8.625 5.0625 -11 4 C-7.63661956 0.63661956 -4.71164284 0 0 0 Z " fill="#73DAF3" transform="translate(145,1)"/>
<path d="M0 0 C3.85605758 -0.35870303 5.52532604 -0.33442938 8.75 1.9375 C9.86375 2.9584375 9.86375 2.9584375 11 4 C11.66 4.33 12.32 4.66 13 5 C13 5.66 13 6.32 13 7 C8.1725201 5.58707905 4.2837641 3.57025846 0 1 C0 0.67 0 0.34 0 0 Z " fill="#80DDEE" transform="translate(48,299)"/>
<path d="M0 0 C1.65 0 3.3 0 5 0 C5 0.66 5 1.32 5 2 C5.66 2 6.32 2 7 2 C8.6875 4.375 8.6875 4.375 10 7 C9.67 7.66 9.34 8.32 9 9 C8.01 8.34 7.02 7.68 6 7 C6 6.34 6 5.68 6 5 C5.38125 4.731875 4.7625 4.46375 4.125 4.1875 C2 3 2 3 0 0 Z " fill="#7FDEF3" transform="translate(239,66)"/>
<path d="M0 0 C2.31625061 1.11777771 4.62784605 2.24374092 6.9375 3.375 C7.59685547 3.69210937 8.25621094 4.00921875 8.93554688 4.3359375 C13.88671875 6.7734375 13.88671875 6.7734375 15 9 C12.36 8.34 9.72 7.68 7 7 C7 6.34 7 5.68 7 5 C6.21625 4.9175 5.4325 4.835 4.625 4.75 C2 4 2 4 0.8359375 1.953125 C0.56007813 1.30859375 0.28421875 0.6640625 0 0 Z " fill="#81DDEE" transform="translate(324,431)"/>
<path d="M0 0 C1.32 0.33 2.64 0.66 4 1 C4 1.66 4 2.32 4 3 C4.94875 3.226875 5.8975 3.45375 6.875 3.6875 C10 5 10 5 11.375 7.625 C11.58125 8.40875 11.7875 9.1925 12 10 C8.78727751 8.56006357 6.3793336 6.76981628 3.75 4.4375 C3.04359375 3.81746094 2.3371875 3.19742187 1.609375 2.55859375 C1.07828125 2.04425781 0.5471875 1.52992188 0 1 C0 0.67 0 0.34 0 0 Z " fill="#87DAF1" transform="translate(274,422)"/>
<path d="M0 0 C0.66 0 1.32 0 2 0 C0.23570801 4.97209562 -2.3939166 9.43438061 -5 14 C-5.33 12.68 -5.66 11.36 -6 10 C-5.34 10 -4.68 10 -4 10 C-4 8.68 -4 7.36 -4 6 C-3.34 6 -2.68 6 -2 6 C-2 4.68 -2 3.36 -2 2 C-1.34 2 -0.68 2 0 2 C0 1.34 0 0.68 0 0 Z " fill="#80DAF1" transform="translate(365,274)"/>
<path d="M0 0 C-1.45287661 1.33927721 -2.91247259 2.67126847 -4.375 4 C-5.18710937 4.7425 -5.99921875 5.485 -6.8359375 6.25 C-9 8 -9 8 -11 8 C-10.67 7.01 -10.34 6.02 -10 5 C-7.9375 4.3125 -7.9375 4.3125 -6 4 C-6 2.68 -6 1.36 -6 0 C-3 -1 -3 -1 0 0 Z " fill="#8DDEF2" transform="translate(300,268)"/>
<path d="M0 0 C3.03242331 2.02161554 3.70810546 2.87018422 5.25 6 C5.78367187 7.051875 5.78367187 7.051875 6.328125 8.125 C6.66070312 9.053125 6.66070312 9.053125 7 10 C6.67 10.66 6.34 11.32 6 12 C2.58088149 9.72058766 2.89881271 9.59525083 2 6 C1.01 5.34 0.02 4.68 -1 4 C-0.67 2.68 -0.34 1.36 0 0 Z " fill="#7CD6ED" transform="translate(361,187)"/>
<path d="M0 0 C0.66 0 1.32 0 2 0 C2 2.31 2 4.62 2 7 C2.99 7.33 3.98 7.66 5 8 C4.34 8.66 3.68 9.32 3 10 C2.34 9.67 1.68 9.34 1 9 C1 8.34 1 7.68 1 7 C0.0409375 6.566875 0.0409375 6.566875 -0.9375 6.125 C-3 5 -3 5 -4 3 C-2.68 3.33 -1.36 3.66 0 4 C0 2.68 0 1.36 0 0 Z " fill="#78DDF4" transform="translate(270,412)"/>
<path d="M0 0 C0.99 0 1.98 0 3 0 C3.66 2.31 4.32 4.62 5 7 C5.66 7 6.32 7 7 7 C7.33 9.31 7.66 11.62 8 14 C4.17398376 9.76405345 2.13637096 5.21592698 0 0 Z " fill="#7FD9F0" transform="translate(164,278)"/>
<path d="M0 0 C0.33 0 0.66 0 1 0 C1.33 2.31 1.66 4.62 2 7 C1.01 7.33 0.02 7.66 -1 8 C-1 9.98 -1 11.96 -1 14 C-1.66 14 -2.32 14 -3 14 C-2.48594831 9.03083364 -1.76615118 4.70973649 0 0 Z " fill="#85DAF4" transform="translate(220,217)"/>
<path d="M0 0 C1.83979073 2.7596861 2.48323221 4.29741882 3.1875 7.4375 C3.45626953 8.58025391 3.45626953 8.58025391 3.73046875 9.74609375 C4.0154963 12.12958496 3.72875415 13.73104204 3 16 C2 15 2 15 1.9375 12.4375 C1.958125 11.633125 1.97875 10.82875 2 10 C1.34 10 0.68 10 0 10 C0 6.7 0 3.4 0 0 Z " fill="#7DD7EC" transform="translate(129,124)"/>
<path d="M0 0 C1.32 0.33 2.64 0.66 4 1 C2.87672229 2.45966034 1.75131706 3.91768364 0.625 5.375 C-0.00148437 6.18710937 -0.62796875 6.99921875 -1.2734375 7.8359375 C-3 10 -3 10 -5 12 C-5.1875 9.6875 -5.1875 9.6875 -5 7 C-3.625 5.4375 -3.625 5.4375 -2 4 C-0.82425289 1.90010348 -0.82425289 1.90010348 0 0 Z " fill="#86DCEF" transform="translate(137,28)"/>
<path d="M0 0 C0.66 0.99 1.32 1.98 2 3 C1.67 3.99 1.34 4.98 1 6 C0.34 6 -0.32 6 -1 6 C-1.66 7.65 -2.32 9.3 -3 11 C-3.66 11 -4.32 11 -5 11 C-3.55049545 7.2089881 -1.84827434 3.6125362 0 0 Z " fill="#85DAF4" transform="translate(348,258)"/>
<path d="M0 0 C4.23429756 1.31061591 8.07407404 2.94356259 12 5 C11.34 5.66 10.68 6.32 10 7 C6.875 6.625 6.875 6.625 4 6 C4.33 5.01 4.66 4.02 5 3 C3.35 2.67 1.7 2.34 0 2 C0 1.34 0 0.68 0 0 Z " fill="#83D9F0" transform="translate(470,166)"/>
<path d="M0 0 C0.66 0.99 1.32 1.98 2 3 C1.38125 3.5775 0.7625 4.155 0.125 4.75 C-2.06079584 6.82232439 -2.06079584 6.82232439 -3 9.1875 C-4 11 -4 11 -6.0625 11.61328125 C-6.701875 11.74089844 -7.34125 11.86851562 -8 12 C-4 6 -4 6 0 0 Z " fill="#88DDF0" transform="translate(211,118)"/>
<path d="M0 0 C2.93200474 2.85276137 5.64315404 5.65079784 8 9 C7.01 9 6.02 9 5 9 C5 8.34 5 7.68 5 7 C2.525 6.01 2.525 6.01 0 5 C0 3.35 0 1.7 0 0 Z " fill="#80DAF2" transform="translate(240,351)"/>
<path d="M0 0 C0 0.66 0 1.32 0 2 C-3.14930893 3.04976964 -5.38814456 3.10131595 -8.6875 3.0625 C-9.68136719 3.05347656 -10.67523438 3.04445313 -11.69921875 3.03515625 C-12.83810547 3.01775391 -12.83810547 3.01775391 -14 3 C-14 2.67 -14 2.34 -14 2 C-9.15758367 0.66416101 -5.06562383 -0.25328119 0 0 Z " fill="#89E3F7" transform="translate(294,341)"/>
<path d="M0 0 C0.66 0 1.32 0 2 0 C0.74194623 4.50802601 -0.90407165 7.4912812 -4 11 C-4 9.02 -4 7.04 -4 5 C-3.34 5 -2.68 5 -2 5 C-2 4.01 -2 3.02 -2 2 C-1.34 2 -0.68 2 0 2 C0 1.34 0 0.68 0 0 Z " fill="#7FDCF3" transform="translate(357,288)"/>
<path d="M0 0 C1.90389849 2.85584773 2.69462177 4.9311762 3.625 8.1875 C4.01558594 9.53908203 4.01558594 9.53908203 4.4140625 10.91796875 C4.60742188 11.60503906 4.80078125 12.29210937 5 13 C4.01 13.495 4.01 13.495 3 14 C1.20724134 10.88089144 0.65709282 8.32317572 0.375 4.75 C0.30023438 3.85796875 0.22546875 2.9659375 0.1484375 2.046875 C0.09945312 1.37140625 0.05046875 0.6959375 0 0 Z " fill="#8FDAF3" transform="translate(146,182)"/>
<path d="M0 0 C1.6274637 0.61855631 3.25190356 1.24507305 4.875 1.875 C5.77992188 2.22304687 6.68484375 2.57109375 7.6171875 2.9296875 C10 4 10 4 12 6 C8.37 5.34 4.74 4.68 1 4 C0.67 2.68 0.34 1.36 0 0 Z " fill="#82DAF0" transform="translate(458,160)"/>
<path d="M0 0 C2.97 0.495 2.97 0.495 6 1 C6 1.66 6 2.32 6 3 C6.99 3 7.98 3 9 3 C9.33 4.32 9.66 5.64 10 7 C9.01 7.495 9.01 7.495 8 8 C8 7.34 8 6.68 8 6 C7.34 6 6.68 6 6 6 C4.62689293 4.70766393 3.28965176 3.37562854 2 2 C1.01 2.495 1.01 2.495 0 3 C0 2.01 0 1.02 0 0 Z " fill="#88DCF1" transform="translate(262,91)"/>
<path d="M0 0 C0.99 0 1.98 0 3 0 C1.66511872 3.59391114 0.03977277 6.75490696 -2 10 C-2.33 8.68 -2.66 7.36 -3 6 C-2.34 6 -1.68 6 -1 6 C-1.0309375 4.7934375 -1.0309375 4.7934375 -1.0625 3.5625 C-1 1 -1 1 0 0 Z " fill="#81DBEF" transform="translate(192,186)"/>
<path d="M0 0 C0 3.73335719 -1.20800723 5.76062846 -3 9 C-3.66 9.66 -4.32 10.32 -5 11 C-5.99 10.67 -6.98 10.34 -8 10 C-5.36 6.7 -2.72 3.4 0 0 Z " fill="#81DAF0" transform="translate(222,104)"/>
<path d="M0 0 C0.598125 0.350625 1.19625 0.70125 1.8125 1.0625 C1.4825 3.0425 1.1525 5.0225 0.8125 7.0625 C-4.0625 2.3125 -4.0625 2.3125 -5.1875 0.0625 C-2.1875 -0.9375 -2.1875 -0.9375 0 0 Z " fill="#7EDAF7" transform="translate(276.1875,98.9375)"/>
<path d="M0 0 C-3.00617269 3.00617269 -5.82381598 2.59585316 -10 3 C-10 2.01 -10 1.02 -10 0 C-6.7169902 -1.6415049 -3.57454967 -0.51888624 0 0 Z " fill="#7BD8F3" transform="translate(392,467)"/>
<path d="M0 0 C0.33 0.99 0.66 1.98 1 3 C0.00390625 4.82421875 0.00390625 4.82421875 -1.4375 6.6875 C-1.91058594 7.31011719 -2.38367188 7.93273437 -2.87109375 8.57421875 C-3.24363281 9.04472656 -3.61617188 9.51523437 -4 10 C-5.1171875 6.28125 -5.1171875 6.28125 -4.0625 3.75 C-3.711875 3.1725 -3.36125 2.595 -3 2 C-2.01 2 -1.02 2 0 2 C0 1.34 0 0.68 0 0 Z " fill="#82D8F1" transform="translate(319,347)"/>
<path d="M0 0 C0.99 0 1.98 0 3 0 C3.33 0.99 3.66 1.98 4 3 C6.01508358 3.73323796 6.01508358 3.73323796 8 4 C7.34 5.32 6.68 6.64 6 8 C4.99403703 7.0479279 3.99538437 6.08812654 3 5.125 C2.443125 4.59132813 1.88625 4.05765625 1.3125 3.5078125 C0 2 0 2 0 0 Z " fill="#7BD9F0" transform="translate(234,380)"/>
<path d="M0 0 C4.09081162 0.45453462 6.33266483 0.79919779 9 4 C9.66 4.33 10.32 4.66 11 5 C11 5.66 11 6.32 11 7 C6.89188572 5.55007731 3.53144334 3.54592427 0 1 C0 0.67 0 0.34 0 0 Z " fill="#80DAF0" transform="translate(37,292)"/>
<path d="M0 0 C3.9618914 1.76084062 8.01467775 4.0293555 10 8 C5.17965738 7.58682778 3.09007389 5.61980085 0 2 C0 1.34 0 0.68 0 0 Z " fill="#83DBF0" transform="translate(256,50)"/>
<path d="M0 0 C2.97 0.33 5.94 0.66 9 1 C9 1.66 9 2.32 9 3 C9.99 3.33 10.98 3.66 12 4 C8.35839192 5.21386936 7.66834531 4.6674695 4.3125 3.0625 C3.10013672 2.49208984 3.10013672 2.49208984 1.86328125 1.91015625 C1.24839844 1.60980469 0.63351563 1.30945313 0 1 C0 0.67 0 0.34 0 0 Z " fill="#81DAF1" transform="translate(183,28)"/>
<path d="M0 0 C0.33 0.66 0.66 1.32 1 2 C0.07421875 3.9453125 0.07421875 3.9453125 -1.3125 6.125 C-1.76238281 6.84945313 -2.21226563 7.57390625 -2.67578125 8.3203125 C-3.11277344 8.87460937 -3.54976563 9.42890625 -4 10 C-4.66 10 -5.32 10 -6 10 C-4.6302836 6.00499382 -2.74277578 3.19990508 0 0 Z " fill="#84D9EF" transform="translate(119,16)"/>
<path d="M0 0 C1.32 0.66 2.64 1.32 4 2 C-0.95 4.475 -0.95 4.475 -6 7 C-5.34 5.68 -4.68 4.36 -4 3 C-3.01 3 -2.02 3 -1 3 C-0.67 2.01 -0.34 1.02 0 0 Z " fill="#82DBF2" transform="translate(209,453)"/>
<path d="M0 0 C1.75 0.0625 1.75 0.0625 4 1 C5.72518887 3.25123006 6.76906007 5.40134903 8 8 C7.67 8.66 7.34 9.32 7 10 C5.83043409 8.52312468 4.66441854 7.04343707 3.5 5.5625 C2.8503125 4.73878906 2.200625 3.91507812 1.53125 3.06640625 C0 1 0 1 0 0 Z " fill="#84DAEE" transform="translate(224,368)"/>
<path d="M0 0 C0 3.70551485 -0.47131891 5.40310199 -2.9375 8.1875 C-5 10 -5 10 -7 10 C-5.33248852 6.05860922 -2.77289351 3.2107188 0 0 Z " fill="#85D8EA" transform="translate(292,346)"/>
<path d="M0 0 C2.64 0 5.28 0 8 0 C4.31265242 2.45823172 1.30300029 3.01242616 -3 4 C-3 3.34 -3 2.68 -3 2 C-2.01 2 -1.02 2 0 2 C0 1.34 0 0.68 0 0 Z " fill="#8CDCF3" transform="translate(433,317)"/>
<path d="M0 0 C0.66 0.33 1.32 0.66 2 1 C0.54744301 4.82946843 -1.42895561 6.12050295 -5 8 C-5 6.35 -5 4.7 -5 3 C-3.35 3 -1.7 3 0 3 C0 2.01 0 1.02 0 0 Z " fill="#84DAF2" transform="translate(502,281)"/>
<path d="M0 0 C6 7.71428571 6 7.71428571 6 11 C5.34 11 4.68 11 4 11 C0 4.5 0 4.5 0 0 Z " fill="#83D9ED" transform="translate(186,269)"/>
<path d="M0 0 C1.79379098 0.44994757 3.58498928 0.91024143 5.375 1.375 C6.37273437 1.63023437 7.37046875 1.88546875 8.3984375 2.1484375 C11 3 11 3 13 5 C11.58249437 4.88490339 10.16598831 4.75746342 8.75 4.625 C7.96109375 4.55539063 7.1721875 4.48578125 6.359375 4.4140625 C3.914123 3.98492887 2.15163097 3.21399362 0 2 C0 1.34 0 0.68 0 0 Z " fill="#91DBF2" transform="translate(434,151)"/>
<path d="M0 0 C0.66 0 1.32 0 2 0 C0.73058503 3.91402949 -0.51167694 5.79072873 -4 8 C-4.33 6.68 -4.66 5.36 -5 4 C-3.35 3.34 -1.7 2.68 0 2 C0 1.34 0 0.68 0 0 Z " fill="#82DBF2" transform="translate(253,101)"/>
<path d="M0 0 C-1.6232687 0.6708712 -3.24867578 1.33657029 -4.875 2 C-6.23238281 2.556875 -6.23238281 2.556875 -7.6171875 3.125 C-10 4 -10 4 -12 4 C-12 3.34 -12 2.68 -12 2 C-11.01 2 -10.02 2 -9 2 C-9 1.34 -9 0.68 -9 0 C-3.375 -1.125 -3.375 -1.125 0 0 Z " fill="#87DDF2" transform="translate(351,27)"/>
<path d="M0 0 C0 0.99 0 1.98 0 3 C-2.31 3.33 -4.62 3.66 -7 4 C-7 4.66 -7 5.32 -7 6 C-8.32 5.67 -9.64 5.34 -11 5 C-9.54462432 4.16151196 -8.08559627 3.32936066 -6.625 2.5 C-5.81289063 2.0359375 -5.00078125 1.571875 -4.1640625 1.09375 C-2 0 -2 0 0 0 Z " fill="#80DAED" transform="translate(325,12)"/>
<path d="M0 0 C1.65 1.32 3.3 2.64 5 4 C6.32 3.01 7.64 2.02 9 1 C7.54728878 4.75283733 7.54728878 4.75283733 5.0625 5.875 C3 6 3 6 0 4 C0 2.68 0 1.36 0 0 Z " fill="#79DAEF" transform="translate(260,374)"/>
<path d="M0 0 C3.0916909 2.52956528 3.90931332 5.22454612 5 9 C4.01 9 3.02 9 2 9 C0.50178941 5.62902617 0 3.79557881 0 0 Z " fill="#92E0F0" transform="translate(169,237)"/>
<path d="M0 0 C-0.375 1.9375 -0.375 1.9375 -1 4 C-1.99 4.495 -1.99 4.495 -3 5 C-3 4.34 -3 3.68 -3 3 C-4.98 3 -6.96 3 -9 3 C-5.87496336 0.91664224 -3.72863529 0 0 0 Z " fill="#78DBEE" transform="translate(144,138)"/>
<path d="M0 0 C2.95409701 1.37154504 5.44008376 2.98863724 8 5 C5.36 4.67 2.72 4.34 0 4 C0 2.68 0 1.36 0 0 Z " fill="#89DBF1" transform="translate(316,426)"/>
<path d="M0 0 C-3.75 3 -3.75 3 -6 3 C-6 3.66 -6 4.32 -6 5 C-6.99 5.33 -7.98 5.66 -9 6 C-5.14285714 -1.71428571 -5.14285714 -1.71428571 0 0 Z " fill="#89DBF2" transform="translate(249,429)"/>
<path d="M0 0 C0.66 0 1.32 0 2 0 C2.33 2.64 2.66 5.28 3 8 C2.67 7.34 2.34 6.68 2 6 C1.01 6 0.02 6 -1 6 C-0.67 4.02 -0.34 2.04 0 0 Z " fill="#74D9F1" transform="translate(417,324)"/>
<path d="M0 0 C2.61500768 2.36595933 4.38999603 4.86049226 6 8 C5.67 8.66 5.34 9.32 5 10 C4.67 9.01 4.34 8.02 4 7 C3.01 7 2.02 7 1 7 C0.67 4.69 0.34 2.38 0 0 Z " fill="#82D8F1" transform="translate(195,285)"/>
<path d="M0 0 C0.66 0.33 1.32 0.66 2 1 C0.71034824 2.37562854 -0.62689293 3.70766393 -2 5 C-2.66 5 -3.32 5 -4 5 C-4.33 5.99 -4.66 6.98 -5 8 C-5.99 7.34 -6.98 6.68 -8 6 C-5.36 4.02 -2.72 2.04 0 0 Z " fill="#84DAEE" transform="translate(485,267)"/>
<path d="M0 0 C0.99 0 1.98 0 3 0 C2.01 2.97 1.02 5.94 0 9 C-1.15941038 5.52176885 -0.70820884 3.54104422 0 0 Z " fill="#88DDF3" transform="translate(397,204)"/>
<path d="M0 0 C1.32 0.66 2.64 1.32 4 2 C2.35 3.32 0.7 4.64 -1 6 C-1.33 5.01 -1.66 4.02 -2 3 C-1.34 2.01 -0.68 1.02 0 0 Z " fill="#7CDEF1" transform="translate(47,196)"/>
<path d="M0 0 C4.875 4.625 4.875 4.625 6 8 C4.68 8 3.36 8 2 8 C1.34 5.36 0.68 2.72 0 0 Z " fill="#7FD7F0" transform="translate(312,112)"/>
<path d="M0 0 C1.32 0.33 2.64 0.66 4 1 C0.535 3.97 0.535 3.97 -3 7 C-2 3 -2 3 0 0 Z " fill="#86DFF0" transform="translate(289,63)"/>
<path d="M0 0 C1 2 1 2 0.375 4 C-1.39265071 6.57112831 -3.07589059 7.07659703 -6 8 C-4.55746343 4.63408134 -2.66735273 2.48952921 0 0 Z " fill="#7AD7F2" transform="translate(279,43)"/>
<path d="M0 0 C0.66 0.33 1.32 0.66 2 1 C-0.64 2.98 -3.28 4.96 -6 7 C-6.33 6.34 -6.66 5.68 -7 5 C-5.47058649 1.94117299 -3.05780454 1.31048766 0 0 Z " fill="#8CDBEE" transform="translate(319,41)"/>
<path d="M0 0 C0.99 0 1.98 0 3 0 C3 0.66 3 1.32 3 2 C3.66 2 4.32 2 5 2 C5 4.31 5 6.62 5 9 C3 7 3 7 2.5 3.9375 C2.335 2.968125 2.17 1.99875 2 1 C1.34 0.67 0.68 0.34 0 0 Z " fill="#8DDEF4" transform="translate(372,264)"/>
<path d="M0 0 C-0.66 0 -1.32 0 -2 0 C-2 0.66 -2 1.32 -2 2 C-6.455 2.495 -6.455 2.495 -11 3 C-4.23255814 -1.51162791 -4.23255814 -1.51162791 0 0 Z " fill="#89DBEE" transform="translate(88,155)"/>
<path d="M0 0 C1.10844919 3.32534757 0.84454356 5.62182575 0 9 C-0.66 8.67 -1.32 8.34 -2 8 C-1.125 1.125 -1.125 1.125 0 0 Z " fill="#82D9F1" transform="translate(130,340)"/>
<path d="M0 0 C0.99 0.33 1.98 0.66 3 1 C1.35 2.98 -0.3 4.96 -2 7 C-2.33 5.68 -2.66 4.36 -3 3 C-2.01 3 -1.02 3 0 3 C0 2.01 0 1.02 0 0 Z " fill="#80DBEE" transform="translate(515,268)"/>
<path d="M0 0 C1.485 0.99 1.485 0.99 3 2 C3.1875 5.625 3.1875 5.625 3 9 C2.34 8.67 1.68 8.34 1 8 C0.40644386 5.35139573 0.25790731 2.70802678 0 0 Z " fill="#72D6EE" transform="translate(0,242)"/>
<path d="M0 0 C0.66 0 1.32 0 2 0 C2 2.31 2 4.62 2 7 C1.34 7 0.68 7 0 7 C0 7.66 0 8.32 0 9 C-0.66 9 -1.32 9 -2 9 C-1.505 7.88625 -1.505 7.88625 -1 6.75 C0.22782871 3.86116688 0.22782871 3.86116688 0 0 Z " fill="#94DEF4" transform="translate(359,233)"/>
<path d="M0 0 C0.66 0 1.32 0 2 0 C2 0.66 2 1.32 2 2 C2.99 2 3.98 2 5 2 C5.33 3.65 5.66 5.3 6 7 C3.95880212 5.38405168 1.95927063 3.7143618 0 2 C0 1.34 0 0.68 0 0 Z " fill="#87DBF1" transform="translate(487,203)"/>
<path d="M0 0 C3.37462715 0.54723683 5.08235 1.0549 8 3 C8 3.66 8 4.32 8 5 C4.62496331 3.8141763 2.35277269 2.72426311 0 0 Z " fill="#8ADDEF" transform="translate(471,193)"/>
<path d="M0 0 C0.33 0 0.66 0 1 0 C0.67 2.97 0.34 5.94 0 9 C-2 5 -2 5 -1.6875 2.8125 C-1 1 -1 1 0 0 Z " fill="#6FD9F1" transform="translate(408,175)"/>
<path d="M0 0 C-0.33 1.65 -0.66 3.3 -1 5 C-2.32 4.34 -3.64 3.68 -5 3 C-2.25 0 -2.25 0 0 0 Z " fill="#7BD9F5" transform="translate(53,169)"/>
<path d="M0 0 C0.66 0.33 1.32 0.66 2 1 C1.25 3.4375 1.25 3.4375 0 6 C-2.125 6.8125 -2.125 6.8125 -4 7 C-2.68 4.69 -1.36 2.38 0 0 Z " fill="#7BD7ED" transform="translate(184,158)"/>
</svg>
